<svg width="1363" height="301" viewBox="0 0 1363 301" fill="none" xmlns="http://www.w3.org/2000/svg">
<rect width="1363" height="301" rx="15" fill="#E5E5E5"/>
<path d="M0 15C0 6.71573 6.71573 0 15 0H37V301H15C6.71573 301 0 294.284 0 286V15Z" fill="#CBAC08"/>
<path d="M126.966 123.106V139.166C126.303 139.9 125.283 140.688 123.904 141.529C122.544 142.353 120.825 143.06 118.748 143.651C116.671 144.242 114.227 144.537 111.417 144.537C108.82 144.537 106.466 144.125 104.354 143.302C102.241 142.46 100.424 141.234 98.9019 139.623C97.3979 137.993 96.2342 136.006 95.4106 133.661C94.605 131.297 94.2021 128.594 94.2021 125.55V123.375C94.2021 120.331 94.6139 117.628 95.4375 115.265C96.2611 112.901 97.4159 110.914 98.9019 109.303C100.406 107.674 102.169 106.438 104.192 105.597C106.233 104.755 108.471 104.334 110.906 104.334C114.505 104.334 117.432 104.907 119.688 106.053C121.944 107.181 123.654 108.748 124.817 110.753C125.981 112.74 126.688 115.041 126.939 117.655H117.889C117.71 116.366 117.369 115.274 116.868 114.378C116.385 113.465 115.687 112.776 114.773 112.311C113.86 111.827 112.679 111.585 111.229 111.585C110.101 111.585 109.071 111.827 108.14 112.311C107.227 112.794 106.448 113.528 105.804 114.513C105.159 115.479 104.658 116.697 104.3 118.165C103.96 119.633 103.79 121.352 103.79 123.321V125.55C103.79 127.502 103.951 129.212 104.273 130.68C104.613 132.148 105.114 133.374 105.777 134.359C106.457 135.326 107.317 136.06 108.355 136.561C109.411 137.044 110.656 137.286 112.088 137.286C113.09 137.286 113.95 137.206 114.666 137.044C115.382 136.865 115.973 136.651 116.438 136.4C116.922 136.131 117.289 135.881 117.54 135.648V129.579H110.987V123.106H126.966ZM148.074 130.733H138.353V123.456H148.074C149.399 123.456 150.473 123.232 151.297 122.784C152.12 122.337 152.72 121.719 153.096 120.931C153.49 120.125 153.687 119.221 153.687 118.219C153.687 117.145 153.49 116.151 153.096 115.238C152.72 114.325 152.12 113.591 151.297 113.036C150.473 112.463 149.399 112.176 148.074 112.176H141.897V144H132.471V104.898H148.074C151.207 104.898 153.902 105.471 156.158 106.617C158.431 107.763 160.177 109.339 161.395 111.344C162.612 113.331 163.221 115.605 163.221 118.165C163.221 120.689 162.612 122.892 161.395 124.771C160.177 126.651 158.431 128.119 156.158 129.176C153.902 130.214 151.207 130.733 148.074 130.733Z" fill="black"/>
<path d="M110.918 76.001V80H97.6738V76.001H110.918ZM99.3486 55.1172V80H94.2217V55.1172H99.3486ZM109.192 65.2515V69.1479H97.6738V65.2515H109.192ZM110.901 55.1172V59.1333H97.6738V55.1172H110.901ZM118.797 53.75V80H113.858V53.75H118.797ZM128.06 61.5088V80H123.121V61.5088H128.06ZM122.813 56.6895C122.813 55.9717 123.064 55.3792 123.565 54.9121C124.066 54.445 124.738 54.2114 125.582 54.2114C126.413 54.2114 127.08 54.445 127.581 54.9121C128.094 55.3792 128.35 55.9717 128.35 56.6895C128.35 57.4072 128.094 57.9997 127.581 58.4668C127.08 58.9339 126.413 59.1675 125.582 59.1675C124.738 59.1675 124.066 58.9339 123.565 58.4668C123.064 57.9997 122.813 57.4072 122.813 56.6895ZM140.638 80.3418C139.202 80.3418 137.915 80.1139 136.775 79.6582C135.636 79.1911 134.668 78.5474 133.87 77.7271C133.084 76.9067 132.48 75.9554 132.059 74.873C131.637 73.7793 131.426 72.6172 131.426 71.3867V70.7031C131.426 69.3018 131.626 68.02 132.024 66.8579C132.423 65.6958 132.993 64.6875 133.733 63.833C134.485 62.9785 135.397 62.3234 136.468 61.8677C137.539 61.4006 138.746 61.167 140.091 61.167C141.401 61.167 142.563 61.3835 143.577 61.8164C144.591 62.2493 145.44 62.8646 146.124 63.6621C146.819 64.4596 147.343 65.4167 147.696 66.5332C148.049 67.6383 148.226 68.8688 148.226 70.2246V72.2754H133.528V68.9941H143.389V68.6182C143.389 67.9346 143.264 67.325 143.013 66.7896C142.774 66.2427 142.409 65.8097 141.919 65.4907C141.43 65.1717 140.803 65.0122 140.04 65.0122C139.39 65.0122 138.832 65.1546 138.365 65.4395C137.898 65.7243 137.516 66.123 137.22 66.6357C136.935 67.1484 136.718 67.7523 136.57 68.4473C136.434 69.1309 136.365 69.8828 136.365 70.7031V71.3867C136.365 72.1273 136.468 72.8109 136.673 73.4375C136.889 74.0641 137.191 74.6053 137.579 75.061C137.977 75.5168 138.456 75.87 139.014 76.1206C139.584 76.3713 140.228 76.4966 140.945 76.4966C141.834 76.4966 142.66 76.3257 143.423 75.9839C144.198 75.6307 144.865 75.1009 145.423 74.3945L147.815 76.9922C147.428 77.5505 146.898 78.0859 146.226 78.5986C145.565 79.1113 144.768 79.5329 143.833 79.8633C142.899 80.1823 141.834 80.3418 140.638 80.3418ZM162.393 55.1172H166.734L173.125 73.3862L179.517 55.1172H183.858L174.869 80H171.382L162.393 55.1172ZM160.052 55.1172H164.375L165.162 72.9248V80H160.052V55.1172ZM181.875 55.1172H186.216V80H181.089V72.9248L181.875 55.1172ZM200.384 75.8301V67.5928C200.384 67.0003 200.287 66.4933 200.093 66.0718C199.9 65.6388 199.598 65.3027 199.188 65.0635C198.789 64.8242 198.27 64.7046 197.632 64.7046C197.085 64.7046 196.613 64.8014 196.214 64.9951C195.815 65.1774 195.507 65.4451 195.291 65.7983C195.075 66.1401 194.966 66.5446 194.966 67.0117H190.044C190.044 66.2256 190.227 65.4793 190.591 64.7729C190.956 64.0666 191.486 63.4456 192.181 62.9102C192.876 62.3633 193.702 61.936 194.659 61.6284C195.627 61.3208 196.709 61.167 197.906 61.167C199.341 61.167 200.617 61.4062 201.734 61.8848C202.85 62.3633 203.728 63.0811 204.366 64.0381C205.015 64.9951 205.34 66.1914 205.34 67.627V75.5396C205.34 76.5535 205.403 77.3853 205.528 78.0347C205.653 78.6727 205.835 79.231 206.075 79.7095V80H201.102C200.862 79.4987 200.68 78.8721 200.555 78.1201C200.441 77.3568 200.384 76.5934 200.384 75.8301ZM201.033 68.7378L201.067 71.5234H198.316C197.667 71.5234 197.103 71.5975 196.624 71.7456C196.146 71.8937 195.752 72.1045 195.445 72.3779C195.137 72.64 194.909 72.9476 194.761 73.3008C194.625 73.654 194.556 74.0413 194.556 74.4629C194.556 74.8844 194.653 75.2661 194.847 75.6079C195.04 75.9383 195.319 76.2004 195.684 76.394C196.049 76.5763 196.476 76.6675 196.966 76.6675C197.706 76.6675 198.35 76.5194 198.897 76.2231C199.444 75.9269 199.865 75.5623 200.162 75.1294C200.469 74.6965 200.629 74.2863 200.64 73.8989L201.939 75.9839C201.757 76.451 201.506 76.9352 201.187 77.4365C200.879 77.9378 200.486 78.4106 200.008 78.855C199.529 79.2879 198.954 79.6468 198.282 79.9316C197.61 80.2051 196.812 80.3418 195.889 80.3418C194.716 80.3418 193.65 80.1082 192.693 79.6411C191.748 79.1626 190.996 78.5075 190.438 77.6758C189.891 76.8327 189.617 75.8757 189.617 74.8047C189.617 73.8363 189.799 72.9761 190.164 72.2241C190.529 71.4722 191.064 70.8398 191.771 70.3271C192.488 69.8031 193.383 69.41 194.454 69.1479C195.525 68.8745 196.766 68.7378 198.179 68.7378H201.033ZM209.407 61.5088H214.346V81.1108C214.346 82.478 214.096 83.6344 213.594 84.5801C213.093 85.5257 212.369 86.2435 211.424 86.7334C210.478 87.2233 209.333 87.4683 207.989 87.4683C207.567 87.4683 207.157 87.4455 206.758 87.3999C206.348 87.3543 205.927 87.2803 205.494 87.1777L205.511 83.4009C205.784 83.4465 206.052 83.4806 206.314 83.5034C206.565 83.5376 206.821 83.5547 207.083 83.5547C207.596 83.5547 208.023 83.4692 208.365 83.2983C208.707 83.1274 208.963 82.8597 209.134 82.4951C209.316 82.1419 209.407 81.6805 209.407 81.1108V61.5088ZM209.014 56.6895C209.014 55.9717 209.265 55.3792 209.766 54.9121C210.279 54.445 210.951 54.2114 211.783 54.2114C212.626 54.2114 213.298 54.445 213.799 54.9121C214.301 55.3792 214.551 55.9717 214.551 56.6895C214.551 57.4072 214.301 57.9997 213.799 58.4668C213.298 58.9339 212.626 59.1675 211.783 59.1675C210.951 59.1675 210.279 58.9339 209.766 58.4668C209.265 57.9997 209.014 57.4072 209.014 56.6895ZM229.18 75.9668V53.75H234.136V80H229.676L229.18 75.9668ZM217.491 70.9766V70.6177C217.491 69.2049 217.65 67.9232 217.969 66.7725C218.288 65.6104 218.755 64.6134 219.371 63.7817C219.986 62.95 220.743 62.3063 221.644 61.8506C222.544 61.3949 223.569 61.167 224.72 61.167C225.802 61.167 226.748 61.3949 227.557 61.8506C228.377 62.3063 229.072 62.9557 229.642 63.7988C230.223 64.6305 230.69 65.616 231.043 66.7554C231.396 67.8833 231.653 69.1195 231.812 70.4639V71.25C231.653 72.5374 231.396 73.7337 231.043 74.8389C230.69 75.944 230.223 76.9124 229.642 77.7441C229.072 78.5645 228.377 79.2025 227.557 79.6582C226.736 80.1139 225.779 80.3418 224.686 80.3418C223.535 80.3418 222.509 80.1082 221.609 79.6411C220.721 79.174 219.969 78.5189 219.354 77.6758C218.75 76.8327 218.288 75.8415 217.969 74.7021C217.65 73.5628 217.491 72.321 217.491 70.9766ZM222.413 70.6177V70.9766C222.413 71.7399 222.47 72.452 222.583 73.1128C222.709 73.7736 222.908 74.3604 223.182 74.873C223.466 75.3743 223.831 75.7674 224.275 76.0522C224.731 76.3257 225.284 76.4624 225.933 76.4624C226.776 76.4624 227.471 76.2744 228.018 75.8984C228.565 75.5111 228.981 74.9813 229.266 74.3091C229.562 73.6369 229.733 72.8621 229.778 71.9849V69.7461C229.744 69.0283 229.642 68.3846 229.471 67.8149C229.311 67.2339 229.072 66.7383 228.753 66.3281C228.445 65.918 228.058 65.599 227.591 65.3711C227.135 65.1432 226.594 65.0293 225.967 65.0293C225.329 65.0293 224.782 65.1774 224.327 65.4736C223.871 65.7585 223.501 66.1515 223.216 66.6528C222.942 67.1541 222.737 67.7466 222.601 68.4302C222.475 69.1024 222.413 69.8315 222.413 70.6177ZM247.962 75.8301V67.5928C247.962 67.0003 247.865 66.4933 247.671 66.0718C247.478 65.6388 247.176 65.3027 246.766 65.0635C246.367 64.8242 245.848 64.7046 245.21 64.7046C244.664 64.7046 244.191 64.8014 243.792 64.9951C243.393 65.1774 243.086 65.4451 242.869 65.7983C242.653 66.1401 242.544 66.5446 242.544 67.0117H237.623C237.623 66.2256 237.805 65.4793 238.169 64.7729C238.534 64.0666 239.064 63.4456 239.759 62.9102C240.454 62.3633 241.28 61.936 242.237 61.6284C243.205 61.3208 244.288 61.167 245.484 61.167C246.919 61.167 248.195 61.4062 249.312 61.8848C250.429 62.3633 251.306 63.0811 251.944 64.0381C252.593 64.9951 252.918 66.1914 252.918 67.627V75.5396C252.918 76.5535 252.981 77.3853 253.106 78.0347C253.231 78.6727 253.414 79.231 253.653 79.7095V80H248.68C248.44 79.4987 248.258 78.8721 248.133 78.1201C248.019 77.3568 247.962 76.5934 247.962 75.8301ZM248.611 68.7378L248.646 71.5234H245.894C245.245 71.5234 244.681 71.5975 244.202 71.7456C243.724 71.8937 243.331 72.1045 243.023 72.3779C242.715 72.64 242.487 72.9476 242.339 73.3008C242.203 73.654 242.134 74.0413 242.134 74.4629C242.134 74.8844 242.231 75.2661 242.425 75.6079C242.618 75.9383 242.898 76.2004 243.262 76.394C243.627 76.5763 244.054 76.6675 244.544 76.6675C245.285 76.6675 245.928 76.5194 246.475 76.2231C247.022 75.9269 247.444 75.5623 247.74 75.1294C248.047 74.6965 248.207 74.2863 248.218 73.8989L249.517 75.9839C249.335 76.451 249.084 76.9352 248.765 77.4365C248.458 77.9378 248.064 78.4106 247.586 78.855C247.107 79.2879 246.532 79.6468 245.86 79.9316C245.188 80.2051 244.39 80.3418 243.467 80.3418C242.294 80.3418 241.229 80.1082 240.271 79.6411C239.326 79.1626 238.574 78.5075 238.016 77.6758C237.469 76.8327 237.195 75.8757 237.195 74.8047C237.195 73.8363 237.378 72.9761 237.742 72.2241C238.107 71.4722 238.642 70.8398 239.349 70.3271C240.066 69.8031 240.961 69.41 242.032 69.1479C243.103 68.8745 244.345 68.7378 245.757 68.7378H248.611ZM261.907 53.75V80H256.968V53.75H261.907ZM275.955 75.8301V67.5928C275.955 67.0003 275.858 66.4933 275.665 66.0718C275.471 65.6388 275.169 65.3027 274.759 65.0635C274.36 64.8242 273.842 64.7046 273.204 64.7046C272.657 64.7046 272.184 64.8014 271.785 64.9951C271.386 65.1774 271.079 65.4451 270.862 65.7983C270.646 66.1401 270.538 66.5446 270.538 67.0117H265.616C265.616 66.2256 265.798 65.4793 266.163 64.7729C266.527 64.0666 267.057 63.4456 267.752 62.9102C268.447 62.3633 269.273 61.936 270.23 61.6284C271.198 61.3208 272.281 61.167 273.477 61.167C274.913 61.167 276.189 61.4062 277.305 61.8848C278.422 62.3633 279.299 63.0811 279.937 64.0381C280.586 64.9951 280.911 66.1914 280.911 67.627V75.5396C280.911 76.5535 280.974 77.3853 281.099 78.0347C281.224 78.6727 281.407 79.231 281.646 79.7095V80H276.673C276.434 79.4987 276.251 78.8721 276.126 78.1201C276.012 77.3568 275.955 76.5934 275.955 75.8301ZM276.604 68.7378L276.639 71.5234H273.887C273.238 71.5234 272.674 71.5975 272.195 71.7456C271.717 71.8937 271.324 72.1045 271.016 72.3779C270.708 72.64 270.481 72.9476 270.333 73.3008C270.196 73.654 270.127 74.0413 270.127 74.4629C270.127 74.8844 270.224 75.2661 270.418 75.6079C270.612 75.9383 270.891 76.2004 271.255 76.394C271.62 76.5763 272.047 76.6675 272.537 76.6675C273.278 76.6675 273.921 76.5194 274.468 76.2231C275.015 75.9269 275.437 75.5623 275.733 75.1294C276.041 74.6965 276.2 74.2863 276.211 73.8989L277.51 75.9839C277.328 76.451 277.077 76.9352 276.758 77.4365C276.451 77.9378 276.058 78.4106 275.579 78.855C275.101 79.2879 274.525 79.6468 273.853 79.9316C273.181 80.2051 272.383 80.3418 271.46 80.3418C270.287 80.3418 269.222 80.1082 268.265 79.6411C267.319 79.1626 266.567 78.5075 266.009 77.6758C265.462 76.8327 265.188 75.8757 265.188 74.8047C265.188 73.8363 265.371 72.9761 265.735 72.2241C266.1 71.4722 266.635 70.8398 267.342 70.3271C268.06 69.8031 268.954 69.41 270.025 69.1479C271.096 68.8745 272.338 68.7378 273.75 68.7378H276.604ZM289.524 65.4565V80H284.603V61.5088H289.217L289.524 65.4565ZM288.807 70.105H287.474C287.474 68.7378 287.65 67.5073 288.003 66.4136C288.357 65.3084 288.852 64.3685 289.49 63.5938C290.128 62.8076 290.886 62.2095 291.763 61.7993C292.652 61.3778 293.643 61.167 294.737 61.167C295.603 61.167 296.395 61.2923 297.112 61.543C297.83 61.7936 298.445 62.1924 298.958 62.7393C299.482 63.2861 299.881 64.0096 300.154 64.9097C300.439 65.8097 300.582 66.9092 300.582 68.208V80H295.625V68.1909C295.625 67.3706 295.512 66.7326 295.284 66.2769C295.056 65.8211 294.72 65.5021 294.275 65.3198C293.842 65.1261 293.307 65.0293 292.669 65.0293C292.008 65.0293 291.433 65.1603 290.943 65.4224C290.464 65.6844 290.066 66.049 289.747 66.5161C289.439 66.9718 289.205 67.5073 289.046 68.1226C288.886 68.7378 288.807 69.3986 288.807 70.105ZM309.52 61.5088V80H304.581V61.5088H309.52ZM304.273 56.6895C304.273 55.9717 304.524 55.3792 305.025 54.9121C305.526 54.445 306.198 54.2114 307.042 54.2114C307.873 54.2114 308.54 54.445 309.041 54.9121C309.554 55.3792 309.81 55.9717 309.81 56.6895C309.81 57.4072 309.554 57.9997 309.041 58.4668C308.54 58.9339 307.873 59.1675 307.042 59.1675C306.198 59.1675 305.526 58.9339 305.025 58.4668C304.524 57.9997 304.273 57.4072 304.273 56.6895Z" fill="#0F0F0F"/>
<rect x="92" y="181" width="1179" height="80" rx="13.3333" fill="#CCCCCC"/>
<rect x="107" y="196.333" width="208" height="49.3333" rx="4.66667" fill="#0F0F0F" stroke="#888888" stroke-width="4"/>
<path d="M184.5 213.166H190.469C191.635 213.166 192.649 213.34 193.51 213.687C194.372 214.034 195.035 214.548 195.5 215.229C195.972 215.909 196.208 216.75 196.208 217.75C196.208 218.618 196.073 219.343 195.802 219.927C195.531 220.51 195.153 220.993 194.667 221.375C194.188 221.75 193.628 222.059 192.99 222.302L191.792 222.979H186.781L186.76 220.156H190.469C190.934 220.156 191.319 220.073 191.625 219.906C191.931 219.739 192.16 219.503 192.313 219.198C192.472 218.885 192.552 218.514 192.552 218.083C192.552 217.646 192.472 217.271 192.313 216.958C192.153 216.646 191.917 216.406 191.604 216.239C191.299 216.073 190.92 215.989 190.469 215.989H188.156V228.333H184.5V213.166ZM192.802 228.333L189.448 221.625L193.323 221.604L196.719 228.177V228.333H192.802ZM203.708 228.541C202.792 228.541 201.972 228.399 201.25 228.114C200.528 227.823 199.917 227.423 199.417 226.916C198.924 226.409 198.545 225.826 198.281 225.166C198.024 224.507 197.896 223.809 197.896 223.073V222.677C197.896 221.85 198.01 221.086 198.24 220.385C198.469 219.677 198.809 219.059 199.26 218.531C199.712 218.003 200.278 217.593 200.958 217.302C201.639 217.003 202.431 216.854 203.333 216.854C204.132 216.854 204.847 216.982 205.479 217.239C206.111 217.496 206.646 217.864 207.083 218.343C207.528 218.823 207.865 219.402 208.094 220.083C208.33 220.764 208.448 221.527 208.448 222.375V223.802H199.24V221.604H205.021V221.333C205.028 220.958 204.962 220.639 204.823 220.375C204.691 220.111 204.497 219.909 204.24 219.771C203.983 219.632 203.67 219.562 203.302 219.562C202.92 219.562 202.604 219.646 202.354 219.812C202.111 219.979 201.92 220.208 201.781 220.5C201.649 220.784 201.556 221.114 201.5 221.489C201.444 221.864 201.417 222.26 201.417 222.677V223.073C201.417 223.489 201.472 223.868 201.583 224.208C201.701 224.548 201.868 224.84 202.083 225.083C202.306 225.319 202.569 225.503 202.875 225.635C203.187 225.767 203.542 225.833 203.937 225.833C204.417 225.833 204.889 225.743 205.354 225.562C205.819 225.382 206.219 225.083 206.552 224.666L208.146 226.562C207.917 226.889 207.59 227.205 207.167 227.51C206.75 227.816 206.25 228.066 205.667 228.26C205.083 228.448 204.431 228.541 203.708 228.541ZM215.729 225.5V220.854C215.729 220.534 215.684 220.26 215.594 220.031C215.503 219.802 215.361 219.625 215.167 219.5C214.972 219.368 214.712 219.302 214.385 219.302C214.122 219.302 213.896 219.347 213.708 219.437C213.521 219.527 213.378 219.663 213.281 219.843C213.184 220.024 213.135 220.253 213.135 220.531H209.625C209.625 220.01 209.74 219.527 209.969 219.083C210.205 218.632 210.538 218.239 210.969 217.906C211.406 217.573 211.927 217.316 212.531 217.135C213.142 216.948 213.823 216.854 214.573 216.854C215.469 216.854 216.267 217.003 216.969 217.302C217.677 217.6 218.236 218.048 218.646 218.646C219.056 219.236 219.26 219.979 219.26 220.875V225.489C219.26 226.225 219.302 226.784 219.385 227.166C219.469 227.541 219.587 227.871 219.74 228.156V228.333H216.219C216.052 227.986 215.927 227.562 215.844 227.062C215.767 226.555 215.729 226.034 215.729 225.5ZM216.156 221.448L216.177 223.323H214.625C214.299 223.323 214.021 223.368 213.792 223.458C213.569 223.548 213.389 223.673 213.25 223.833C213.118 223.986 213.021 224.159 212.958 224.354C212.903 224.548 212.875 224.753 212.875 224.968C212.875 225.177 212.924 225.364 213.021 225.531C213.125 225.691 213.264 225.816 213.438 225.906C213.611 225.996 213.806 226.041 214.021 226.041C214.41 226.041 214.74 225.968 215.01 225.823C215.288 225.67 215.5 225.486 215.646 225.271C215.792 225.055 215.865 224.854 215.865 224.666L216.635 226.104C216.497 226.382 216.337 226.663 216.156 226.948C215.983 227.232 215.764 227.496 215.5 227.739C215.243 227.975 214.927 228.17 214.552 228.323C214.177 228.468 213.722 228.541 213.188 228.541C212.493 228.541 211.854 228.399 211.271 228.114C210.694 227.83 210.233 227.434 209.885 226.927C209.538 226.413 209.365 225.823 209.365 225.156C209.365 224.573 209.469 224.052 209.677 223.593C209.892 223.135 210.215 222.746 210.646 222.427C211.076 222.107 211.625 221.864 212.292 221.698C212.958 221.531 213.743 221.448 214.646 221.448H216.156ZM225.969 225.833C226.295 225.833 226.573 225.774 226.802 225.656C227.038 225.531 227.215 225.357 227.333 225.135C227.458 224.906 227.517 224.632 227.51 224.312H230.813C230.819 225.159 230.611 225.902 230.188 226.541C229.771 227.173 229.201 227.666 228.479 228.021C227.764 228.368 226.955 228.541 226.052 228.541C225.17 228.541 224.399 228.399 223.74 228.114C223.08 227.823 222.528 227.42 222.083 226.906C221.646 226.385 221.316 225.777 221.094 225.083C220.878 224.389 220.771 223.635 220.771 222.823V222.583C220.771 221.771 220.878 221.017 221.094 220.323C221.316 219.621 221.646 219.014 222.083 218.5C222.528 217.979 223.076 217.576 223.729 217.291C224.389 217 225.156 216.854 226.031 216.854C226.969 216.854 227.795 217.031 228.51 217.385C229.233 217.739 229.799 218.253 230.208 218.927C230.618 219.6 230.819 220.416 230.813 221.375H227.51C227.517 221.034 227.465 220.729 227.354 220.458C227.243 220.187 227.069 219.972 226.833 219.812C226.604 219.646 226.309 219.562 225.948 219.562C225.587 219.562 225.295 219.642 225.073 219.802C224.851 219.961 224.681 220.184 224.563 220.468C224.451 220.746 224.375 221.066 224.333 221.427C224.299 221.788 224.281 222.173 224.281 222.583V222.823C224.281 223.239 224.299 223.632 224.333 224C224.375 224.361 224.455 224.68 224.573 224.958C224.691 225.229 224.861 225.444 225.083 225.604C225.306 225.757 225.601 225.833 225.969 225.833ZM238.25 217.062V219.5H231.458V217.062H238.25ZM232.885 214.26H236.396V224.656C236.396 224.955 236.431 225.187 236.5 225.354C236.569 225.514 236.688 225.628 236.854 225.698C237.028 225.76 237.257 225.791 237.542 225.791C237.743 225.791 237.91 225.788 238.042 225.781C238.174 225.767 238.299 225.75 238.417 225.729V228.239C238.118 228.336 237.806 228.409 237.479 228.458C237.153 228.514 236.806 228.541 236.438 228.541C235.688 228.541 235.045 228.423 234.51 228.187C233.983 227.951 233.58 227.58 233.302 227.073C233.024 226.566 232.885 225.906 232.885 225.093V214.26Z" fill="white"/>
<rect x="339" y="196.333" width="208" height="49.3333" rx="4.66667" fill="#0F0F0F" stroke="#888888" stroke-width="4"/>
<path d="M419.937 213.166V228.333H416.292L410.927 218.896V228.333H407.271V213.166H410.927L416.292 222.604V213.166H419.937ZM421.646 222.812V222.593C421.646 221.767 421.764 221.007 422 220.312C422.236 219.611 422.583 219.003 423.042 218.489C423.5 217.975 424.066 217.576 424.74 217.291C425.413 217 426.191 216.854 427.073 216.854C427.962 216.854 428.743 217 429.417 217.291C430.097 217.576 430.667 217.975 431.125 218.489C431.583 219.003 431.931 219.611 432.167 220.312C432.403 221.007 432.521 221.767 432.521 222.593V222.812C432.521 223.632 432.403 224.392 432.167 225.093C431.931 225.788 431.583 226.396 431.125 226.916C430.667 227.43 430.101 227.83 429.427 228.114C428.753 228.399 427.976 228.541 427.094 228.541C426.212 228.541 425.431 228.399 424.75 228.114C424.069 227.83 423.5 227.43 423.042 226.916C422.583 226.396 422.236 225.788 422 225.093C421.764 224.392 421.646 223.632 421.646 222.812ZM425.156 222.593V222.812C425.156 223.236 425.187 223.632 425.25 224C425.312 224.368 425.417 224.691 425.562 224.968C425.708 225.239 425.906 225.451 426.156 225.604C426.406 225.757 426.719 225.833 427.094 225.833C427.462 225.833 427.767 225.757 428.01 225.604C428.26 225.451 428.458 225.239 428.604 224.968C428.75 224.691 428.854 224.368 428.917 224C428.979 223.632 429.01 223.236 429.01 222.812V222.593C429.01 222.184 428.979 221.798 428.917 221.437C428.854 221.069 428.75 220.746 428.604 220.468C428.458 220.184 428.26 219.961 428.01 219.802C427.76 219.642 427.448 219.562 427.073 219.562C426.705 219.562 426.396 219.642 426.146 219.802C425.903 219.961 425.708 220.184 425.562 220.468C425.417 220.746 425.312 221.069 425.25 221.437C425.187 221.798 425.156 222.184 425.156 222.593ZM440.563 225.75V212.333H444.094V228.333H440.927L440.563 225.75ZM433.646 222.833V222.614C433.646 221.76 433.74 220.982 433.927 220.281C434.115 219.573 434.392 218.965 434.76 218.458C435.128 217.944 435.587 217.548 436.135 217.271C436.684 216.993 437.316 216.854 438.031 216.854C438.67 216.854 439.229 217.003 439.708 217.302C440.188 217.593 440.597 218.003 440.938 218.531C441.278 219.059 441.556 219.677 441.771 220.385C441.986 221.086 442.149 221.843 442.26 222.656V222.916C442.149 223.68 441.986 224.402 441.771 225.083C441.556 225.757 441.278 226.354 440.938 226.875C440.597 227.396 440.184 227.805 439.698 228.104C439.219 228.396 438.656 228.541 438.01 228.541C437.295 228.541 436.663 228.399 436.115 228.114C435.573 227.83 435.118 227.43 434.75 226.916C434.389 226.402 434.115 225.798 433.927 225.104C433.74 224.409 433.646 223.652 433.646 222.833ZM437.156 222.614V222.833C437.156 223.257 437.184 223.649 437.24 224.01C437.295 224.371 437.389 224.691 437.521 224.968C437.66 225.239 437.84 225.451 438.063 225.604C438.292 225.757 438.573 225.833 438.906 225.833C439.358 225.833 439.729 225.725 440.021 225.51C440.319 225.295 440.538 224.989 440.677 224.593C440.823 224.198 440.885 223.732 440.865 223.198V222.375C440.878 221.916 440.847 221.514 440.771 221.166C440.694 220.812 440.573 220.517 440.406 220.281C440.247 220.045 440.042 219.868 439.792 219.75C439.549 219.625 439.26 219.562 438.927 219.562C438.601 219.562 438.323 219.639 438.094 219.791C437.872 219.944 437.691 220.159 437.552 220.437C437.413 220.708 437.313 221.031 437.25 221.406C437.188 221.774 437.156 222.177 437.156 222.614ZM451.542 228.541C450.625 228.541 449.806 228.399 449.083 228.114C448.361 227.823 447.75 227.423 447.25 226.916C446.757 226.409 446.378 225.826 446.115 225.166C445.858 224.507 445.729 223.809 445.729 223.073V222.677C445.729 221.85 445.844 221.086 446.073 220.385C446.302 219.677 446.642 219.059 447.094 218.531C447.545 218.003 448.111 217.593 448.792 217.302C449.472 217.003 450.264 216.854 451.167 216.854C451.965 216.854 452.681 216.982 453.313 217.239C453.944 217.496 454.479 217.864 454.917 218.343C455.361 218.823 455.698 219.402 455.927 220.083C456.163 220.764 456.281 221.527 456.281 222.375V223.802H447.073V221.604H452.854V221.333C452.861 220.958 452.795 220.639 452.656 220.375C452.524 220.111 452.33 219.909 452.073 219.771C451.816 219.632 451.503 219.562 451.135 219.562C450.753 219.562 450.438 219.646 450.188 219.812C449.944 219.979 449.753 220.208 449.615 220.5C449.483 220.784 449.389 221.114 449.333 221.489C449.278 221.864 449.25 222.26 449.25 222.677V223.073C449.25 223.489 449.306 223.868 449.417 224.208C449.535 224.548 449.701 224.84 449.917 225.083C450.139 225.319 450.403 225.503 450.708 225.635C451.021 225.767 451.375 225.833 451.771 225.833C452.25 225.833 452.722 225.743 453.188 225.562C453.653 225.382 454.052 225.083 454.385 224.666L455.979 226.562C455.75 226.889 455.424 227.205 455 227.51C454.583 227.816 454.083 228.066 453.5 228.26C452.917 228.448 452.264 228.541 451.542 228.541ZM457.938 226.687C457.938 226.187 458.118 225.771 458.479 225.437C458.84 225.097 459.306 224.927 459.875 224.927C460.451 224.927 460.917 225.097 461.271 225.437C461.632 225.771 461.813 226.187 461.813 226.687C461.813 227.187 461.632 227.607 461.271 227.948C460.917 228.281 460.451 228.448 459.875 228.448C459.306 228.448 458.84 228.281 458.479 227.948C458.118 227.607 457.938 227.187 457.938 226.687ZM464.427 217.062H467.948V228.698C467.948 229.6 467.774 230.361 467.427 230.979C467.08 231.604 466.583 232.076 465.937 232.396C465.292 232.722 464.521 232.885 463.625 232.885C463.326 232.885 463.052 232.871 462.802 232.843C462.545 232.823 462.264 232.777 461.958 232.708V230.052C462.139 230.08 462.306 230.1 462.458 230.114C462.611 230.135 462.778 230.146 462.958 230.146C463.278 230.146 463.545 230.093 463.76 229.989C463.976 229.885 464.139 229.725 464.25 229.51C464.368 229.295 464.427 229.024 464.427 228.698V217.062ZM464.167 214.156C464.167 213.656 464.347 213.246 464.708 212.927C465.069 212.607 465.538 212.448 466.115 212.448C466.691 212.448 467.16 212.607 467.521 212.927C467.882 213.246 468.062 213.656 468.062 214.156C468.062 214.656 467.882 215.066 467.521 215.385C467.16 215.705 466.691 215.864 466.115 215.864C465.538 215.864 465.069 215.705 464.708 215.385C464.347 215.066 464.167 214.656 464.167 214.156ZM475.844 225.166C475.844 224.972 475.778 224.805 475.646 224.666C475.521 224.521 475.299 224.389 474.979 224.271C474.66 224.146 474.212 224.021 473.635 223.896C473.087 223.777 472.569 223.621 472.083 223.427C471.604 223.232 471.184 222.996 470.823 222.718C470.462 222.441 470.177 222.111 469.969 221.729C469.767 221.347 469.667 220.909 469.667 220.416C469.667 219.937 469.767 219.486 469.969 219.062C470.177 218.632 470.479 218.253 470.875 217.927C471.278 217.593 471.767 217.333 472.344 217.146C472.92 216.951 473.576 216.854 474.312 216.854C475.326 216.854 476.201 217.01 476.937 217.323C477.674 217.628 478.24 218.059 478.635 218.614C479.038 219.163 479.24 219.798 479.24 220.521H475.729C475.729 220.236 475.681 219.993 475.583 219.791C475.493 219.59 475.344 219.437 475.135 219.333C474.927 219.222 474.649 219.166 474.302 219.166C474.059 219.166 473.837 219.211 473.635 219.302C473.441 219.392 473.285 219.517 473.167 219.677C473.049 219.836 472.99 220.024 472.99 220.239C472.99 220.392 473.024 220.531 473.094 220.656C473.17 220.774 473.285 220.885 473.437 220.989C473.59 221.086 473.785 221.177 474.021 221.26C474.257 221.336 474.542 221.406 474.875 221.468C475.632 221.607 476.34 221.805 477 222.062C477.66 222.319 478.194 222.684 478.604 223.156C479.021 223.628 479.229 224.264 479.229 225.062C479.229 225.562 479.115 226.024 478.885 226.448C478.656 226.864 478.326 227.232 477.896 227.552C477.465 227.864 476.948 228.107 476.344 228.281C475.74 228.455 475.059 228.541 474.302 228.541C473.226 228.541 472.316 228.35 471.573 227.968C470.83 227.58 470.267 227.093 469.885 226.51C469.51 225.92 469.323 225.323 469.323 224.718H472.594C472.608 225.066 472.691 225.35 472.844 225.573C473.003 225.795 473.215 225.958 473.479 226.062C473.743 226.166 474.049 226.218 474.396 226.218C474.715 226.218 474.979 226.173 475.187 226.083C475.403 225.993 475.566 225.871 475.677 225.718C475.788 225.559 475.844 225.375 475.844 225.166Z" fill="white"/>
<rect x="571" y="196.333" width="208" height="49.3333" rx="4.66667" fill="#0F0F0F" stroke="#888888" stroke-width="4"/>
<path d="M648.427 225.521V228.333H640.344V225.521H648.427ZM641.646 213.166V228.333H637.99V213.166H641.646ZM647.385 219.187V221.906H640.344V219.187H647.385ZM648.458 213.166V215.989H640.344V213.166H648.458ZM652.74 217.062L654.323 220.166L655.958 217.062H659.604L656.646 222.552L659.76 228.333H656.083L654.323 225L652.573 228.333H648.896L652.01 222.552L649.062 217.062H652.74ZM664.302 219.229V232.666H660.792V217.062H664.062L664.302 219.229ZM671.219 222.562V222.781C671.219 223.6 671.125 224.361 670.937 225.062C670.75 225.764 670.472 226.375 670.104 226.896C669.736 227.416 669.278 227.823 668.729 228.114C668.187 228.399 667.559 228.541 666.844 228.541C666.17 228.541 665.59 228.392 665.104 228.093C664.618 227.795 664.212 227.382 663.885 226.854C663.559 226.326 663.295 225.722 663.094 225.041C662.892 224.361 662.733 223.642 662.615 222.885V222.604C662.733 221.791 662.892 221.038 663.094 220.343C663.295 219.642 663.559 219.031 663.885 218.51C664.212 217.989 664.615 217.583 665.094 217.291C665.58 217 666.16 216.854 666.833 216.854C667.549 216.854 668.177 216.989 668.719 217.26C669.267 217.531 669.726 217.92 670.094 218.427C670.469 218.927 670.75 219.527 670.937 220.229C671.125 220.93 671.219 221.708 671.219 222.562ZM667.708 222.781V222.562C667.708 222.125 667.677 221.725 667.615 221.364C667.552 220.996 667.451 220.677 667.312 220.406C667.181 220.135 667.003 219.927 666.781 219.781C666.559 219.635 666.285 219.562 665.958 219.562C665.583 219.562 665.267 219.621 665.01 219.739C664.76 219.85 664.559 220.024 664.406 220.26C664.26 220.489 664.156 220.777 664.094 221.125C664.038 221.465 664.014 221.864 664.021 222.323V223.177C664.007 223.705 664.059 224.17 664.177 224.573C664.295 224.968 664.5 225.277 664.792 225.5C665.083 225.722 665.479 225.833 665.979 225.833C666.312 225.833 666.59 225.757 666.812 225.604C667.035 225.444 667.212 225.225 667.344 224.948C667.476 224.663 667.569 224.336 667.625 223.968C667.681 223.6 667.708 223.205 667.708 222.781ZM676.323 219.854V228.333H672.812V217.062H676.094L676.323 219.854ZM679.656 216.979L679.594 220.239C679.455 220.225 679.267 220.208 679.031 220.187C678.795 220.166 678.597 220.156 678.437 220.156C678.028 220.156 677.674 220.205 677.375 220.302C677.083 220.392 676.84 220.531 676.646 220.718C676.458 220.899 676.319 221.128 676.229 221.406C676.146 221.684 676.108 222.007 676.115 222.375L675.479 221.958C675.479 221.201 675.552 220.514 675.698 219.896C675.851 219.271 676.066 218.732 676.344 218.281C676.622 217.823 676.958 217.472 677.354 217.229C677.75 216.979 678.194 216.854 678.687 216.854C678.861 216.854 679.031 216.864 679.198 216.885C679.372 216.906 679.524 216.937 679.656 216.979ZM686.115 228.541C685.198 228.541 684.378 228.399 683.656 228.114C682.934 227.823 682.323 227.423 681.823 226.916C681.33 226.409 680.951 225.826 680.687 225.166C680.431 224.507 680.302 223.809 680.302 223.073V222.677C680.302 221.85 680.417 221.086 680.646 220.385C680.875 219.677 681.215 219.059 681.667 218.531C682.118 218.003 682.684 217.593 683.365 217.302C684.045 217.003 684.837 216.854 685.74 216.854C686.538 216.854 687.253 216.982 687.885 217.239C688.517 217.496 689.052 217.864 689.49 218.343C689.934 218.823 690.271 219.402 690.5 220.083C690.736 220.764 690.854 221.527 690.854 222.375V223.802H681.646V221.604H687.427V221.333C687.434 220.958 687.368 220.639 687.229 220.375C687.097 220.111 686.903 219.909 686.646 219.771C686.389 219.632 686.076 219.562 685.708 219.562C685.326 219.562 685.01 219.646 684.76 219.812C684.517 219.979 684.326 220.208 684.187 220.5C684.056 220.784 683.962 221.114 683.906 221.489C683.851 221.864 683.823 222.26 683.823 222.677V223.073C683.823 223.489 683.878 223.868 683.99 224.208C684.108 224.548 684.274 224.84 684.49 225.083C684.712 225.319 684.976 225.503 685.281 225.635C685.594 225.767 685.948 225.833 686.344 225.833C686.823 225.833 687.295 225.743 687.76 225.562C688.226 225.382 688.625 225.083 688.958 224.666L690.552 226.562C690.323 226.889 689.997 227.205 689.573 227.51C689.156 227.816 688.656 228.066 688.073 228.26C687.49 228.448 686.837 228.541 686.115 228.541ZM698.187 225.166C698.187 224.972 698.122 224.805 697.99 224.666C697.865 224.521 697.642 224.389 697.323 224.271C697.003 224.146 696.556 224.021 695.979 223.896C695.431 223.777 694.913 223.621 694.427 223.427C693.948 223.232 693.528 222.996 693.167 222.718C692.806 222.441 692.521 222.111 692.312 221.729C692.111 221.347 692.01 220.909 692.01 220.416C692.01 219.937 692.111 219.486 692.312 219.062C692.521 218.632 692.823 218.253 693.219 217.927C693.622 217.593 694.111 217.333 694.687 217.146C695.264 216.951 695.92 216.854 696.656 216.854C697.67 216.854 698.545 217.01 699.281 217.323C700.017 217.628 700.583 218.059 700.979 218.614C701.382 219.163 701.583 219.798 701.583 220.521H698.073C698.073 220.236 698.024 219.993 697.927 219.791C697.837 219.59 697.687 219.437 697.479 219.333C697.271 219.222 696.993 219.166 696.646 219.166C696.403 219.166 696.181 219.211 695.979 219.302C695.785 219.392 695.628 219.517 695.51 219.677C695.392 219.836 695.333 220.024 695.333 220.239C695.333 220.392 695.368 220.531 695.437 220.656C695.514 220.774 695.628 220.885 695.781 220.989C695.934 221.086 696.128 221.177 696.365 221.26C696.601 221.336 696.885 221.406 697.219 221.468C697.976 221.607 698.684 221.805 699.344 222.062C700.003 222.319 700.538 222.684 700.948 223.156C701.365 223.628 701.573 224.264 701.573 225.062C701.573 225.562 701.458 226.024 701.229 226.448C701 226.864 700.67 227.232 700.24 227.552C699.809 227.864 699.292 228.107 698.687 228.281C698.083 228.455 697.403 228.541 696.646 228.541C695.569 228.541 694.66 228.35 693.917 227.968C693.174 227.58 692.611 227.093 692.229 226.51C691.854 225.92 691.667 225.323 691.667 224.718H694.937C694.951 225.066 695.035 225.35 695.187 225.573C695.347 225.795 695.559 225.958 695.823 226.062C696.087 226.166 696.392 226.218 696.74 226.218C697.059 226.218 697.323 226.173 697.531 226.083C697.747 225.993 697.91 225.871 698.021 225.718C698.132 225.559 698.187 225.375 698.187 225.166ZM709.125 225.166C709.125 224.972 709.059 224.805 708.927 224.666C708.802 224.521 708.58 224.389 708.26 224.271C707.941 224.146 707.493 224.021 706.917 223.896C706.368 223.777 705.851 223.621 705.365 223.427C704.885 223.232 704.465 222.996 704.104 222.718C703.743 222.441 703.458 222.111 703.25 221.729C703.049 221.347 702.948 220.909 702.948 220.416C702.948 219.937 703.049 219.486 703.25 219.062C703.458 218.632 703.76 218.253 704.156 217.927C704.559 217.593 705.049 217.333 705.625 217.146C706.201 216.951 706.858 216.854 707.594 216.854C708.608 216.854 709.483 217.01 710.219 217.323C710.955 217.628 711.521 218.059 711.917 218.614C712.319 219.163 712.521 219.798 712.521 220.521H709.01C709.01 220.236 708.962 219.993 708.865 219.791C708.774 219.59 708.625 219.437 708.417 219.333C708.208 219.222 707.931 219.166 707.583 219.166C707.34 219.166 707.118 219.211 706.917 219.302C706.722 219.392 706.566 219.517 706.448 219.677C706.33 219.836 706.271 220.024 706.271 220.239C706.271 220.392 706.306 220.531 706.375 220.656C706.451 220.774 706.566 220.885 706.719 220.989C706.872 221.086 707.066 221.177 707.302 221.26C707.538 221.336 707.823 221.406 708.156 221.468C708.913 221.607 709.622 221.805 710.281 222.062C710.941 222.319 711.476 222.684 711.885 223.156C712.302 223.628 712.51 224.264 712.51 225.062C712.51 225.562 712.396 226.024 712.167 226.448C711.937 226.864 711.608 227.232 711.177 227.552C710.747 227.864 710.229 228.107 709.625 228.281C709.021 228.455 708.34 228.541 707.583 228.541C706.507 228.541 705.597 228.35 704.854 227.968C704.111 227.58 703.549 227.093 703.167 226.51C702.792 225.92 702.604 225.323 702.604 224.718H705.875C705.889 225.066 705.972 225.35 706.125 225.573C706.285 225.795 706.497 225.958 706.76 226.062C707.024 226.166 707.33 226.218 707.677 226.218C707.997 226.218 708.26 226.173 708.469 226.083C708.684 225.993 708.847 225.871 708.958 225.718C709.069 225.559 709.125 225.375 709.125 225.166Z" fill="white"/>
<rect x="803" y="196.333" width="208" height="49.3333" rx="4.66667" fill="#0F0F0F" stroke="#888888" stroke-width="4"/>
<path d="M862.656 213.166H865.635L869.021 223.718L872.406 213.166H875.385L870.229 228.333H867.813L862.656 213.166ZM860.844 213.166H863.927L864.5 224.791V228.333H860.844V213.166ZM874.115 213.166H877.208V228.333H873.542V224.791L874.115 213.166ZM878.948 222.812V222.593C878.948 221.767 879.066 221.007 879.302 220.312C879.538 219.611 879.885 219.003 880.344 218.489C880.802 217.975 881.368 217.576 882.042 217.291C882.715 217 883.493 216.854 884.375 216.854C885.264 216.854 886.045 217 886.719 217.291C887.399 217.576 887.969 217.975 888.427 218.489C888.885 219.003 889.233 219.611 889.469 220.312C889.705 221.007 889.823 221.767 889.823 222.593V222.812C889.823 223.632 889.705 224.392 889.469 225.093C889.233 225.788 888.885 226.396 888.427 226.916C887.969 227.43 887.403 227.83 886.729 228.114C886.056 228.399 885.278 228.541 884.396 228.541C883.514 228.541 882.733 228.399 882.052 228.114C881.372 227.83 880.802 227.43 880.344 226.916C879.885 226.396 879.538 225.788 879.302 225.093C879.066 224.392 878.948 223.632 878.948 222.812ZM882.458 222.593V222.812C882.458 223.236 882.49 223.632 882.552 224C882.615 224.368 882.719 224.691 882.865 224.968C883.01 225.239 883.208 225.451 883.458 225.604C883.708 225.757 884.021 225.833 884.396 225.833C884.764 225.833 885.069 225.757 885.313 225.604C885.563 225.451 885.76 225.239 885.906 224.968C886.052 224.691 886.156 224.368 886.219 224C886.281 223.632 886.313 223.236 886.313 222.812V222.593C886.313 222.184 886.281 221.798 886.219 221.437C886.156 221.069 886.052 220.746 885.906 220.468C885.76 220.184 885.563 219.961 885.313 219.802C885.063 219.642 884.75 219.562 884.375 219.562C884.007 219.562 883.698 219.642 883.448 219.802C883.205 219.961 883.01 220.184 882.865 220.468C882.719 220.746 882.615 221.069 882.552 221.437C882.49 221.798 882.458 222.184 882.458 222.593ZM894.833 219.468V228.333H891.323V217.062H894.615L894.833 219.468ZM894.417 222.312L893.594 222.333C893.594 221.472 893.698 220.705 893.906 220.031C894.115 219.35 894.41 218.774 894.792 218.302C895.174 217.83 895.628 217.472 896.156 217.229C896.691 216.979 897.285 216.854 897.938 216.854C898.458 216.854 898.934 216.93 899.365 217.083C899.802 217.236 900.177 217.482 900.49 217.823C900.809 218.163 901.052 218.614 901.219 219.177C901.392 219.732 901.479 220.42 901.479 221.239V228.333H897.948V221.229C897.948 220.777 897.885 220.434 897.76 220.198C897.635 219.955 897.455 219.788 897.219 219.698C896.983 219.607 896.694 219.562 896.354 219.562C895.993 219.562 895.688 219.632 895.438 219.771C895.188 219.909 894.986 220.104 894.833 220.354C894.688 220.597 894.58 220.885 894.51 221.218C894.448 221.552 894.417 221.916 894.417 222.312ZM910.51 217.062H913.698V227.896C913.698 228.937 913.458 229.819 912.979 230.541C912.5 231.271 911.83 231.823 910.969 232.198C910.115 232.58 909.115 232.771 907.969 232.771C907.462 232.771 906.944 232.705 906.417 232.573C905.889 232.448 905.396 232.26 904.938 232.01C904.479 231.76 904.094 231.451 903.781 231.083L905.25 229.021C905.535 229.34 905.892 229.611 906.323 229.833C906.753 230.062 907.26 230.177 907.844 230.177C908.351 230.177 908.774 230.086 909.115 229.906C909.462 229.725 909.726 229.461 909.906 229.114C910.087 228.774 910.177 228.361 910.177 227.875V219.729L910.51 217.062ZM903.021 222.833V222.614C903.021 221.76 903.125 220.982 903.333 220.281C903.549 219.573 903.854 218.965 904.25 218.458C904.653 217.944 905.139 217.548 905.708 217.271C906.278 216.993 906.92 216.854 907.635 216.854C908.406 216.854 909.038 217.003 909.531 217.302C910.031 217.593 910.431 218.003 910.729 218.531C911.035 219.059 911.271 219.677 911.438 220.385C911.611 221.086 911.757 221.843 911.875 222.656V222.916C911.757 223.68 911.594 224.402 911.385 225.083C911.184 225.757 910.92 226.354 910.594 226.875C910.267 227.396 909.858 227.805 909.365 228.104C908.878 228.396 908.295 228.541 907.615 228.541C906.906 228.541 906.267 228.399 905.698 228.114C905.135 227.83 904.653 227.43 904.25 226.916C903.854 226.402 903.549 225.798 903.333 225.104C903.125 224.409 903.021 223.652 903.021 222.833ZM906.531 222.614V222.833C906.531 223.257 906.569 223.649 906.646 224.01C906.729 224.371 906.854 224.691 907.021 224.968C907.188 225.239 907.392 225.451 907.635 225.604C907.885 225.757 908.177 225.833 908.51 225.833C909.017 225.833 909.427 225.725 909.74 225.51C910.052 225.295 910.278 224.989 910.417 224.593C910.556 224.198 910.615 223.732 910.594 223.198V222.375C910.608 221.916 910.576 221.514 910.5 221.166C910.424 220.812 910.302 220.517 910.135 220.281C909.976 220.045 909.76 219.868 909.49 219.75C909.226 219.625 908.906 219.562 908.531 219.562C908.205 219.562 907.917 219.639 907.667 219.791C907.417 219.944 907.208 220.159 907.042 220.437C906.875 220.708 906.747 221.031 906.656 221.406C906.573 221.774 906.531 222.177 906.531 222.614ZM915.281 222.812V222.593C915.281 221.767 915.399 221.007 915.635 220.312C915.872 219.611 916.219 219.003 916.677 218.489C917.135 217.975 917.701 217.576 918.375 217.291C919.049 217 919.826 216.854 920.708 216.854C921.597 216.854 922.378 217 923.052 217.291C923.733 217.576 924.302 217.975 924.76 218.489C925.219 219.003 925.566 219.611 925.802 220.312C926.038 221.007 926.156 221.767 926.156 222.593V222.812C926.156 223.632 926.038 224.392 925.802 225.093C925.566 225.788 925.219 226.396 924.76 226.916C924.302 227.43 923.736 227.83 923.063 228.114C922.389 228.399 921.611 228.541 920.729 228.541C919.847 228.541 919.066 228.399 918.385 228.114C917.705 227.83 917.135 227.43 916.677 226.916C916.219 226.396 915.872 225.788 915.635 225.093C915.399 224.392 915.281 223.632 915.281 222.812ZM918.792 222.593V222.812C918.792 223.236 918.823 223.632 918.885 224C918.948 224.368 919.052 224.691 919.198 224.968C919.344 225.239 919.542 225.451 919.792 225.604C920.042 225.757 920.354 225.833 920.729 225.833C921.097 225.833 921.403 225.757 921.646 225.604C921.896 225.451 922.094 225.239 922.24 224.968C922.385 224.691 922.49 224.368 922.552 224C922.615 223.632 922.646 223.236 922.646 222.812V222.593C922.646 222.184 922.615 221.798 922.552 221.437C922.49 221.069 922.385 220.746 922.24 220.468C922.094 220.184 921.896 219.961 921.646 219.802C921.396 219.642 921.083 219.562 920.708 219.562C920.34 219.562 920.031 219.642 919.781 219.802C919.538 219.961 919.344 220.184 919.198 220.468C919.052 220.746 918.948 221.069 918.885 221.437C918.823 221.798 918.792 222.184 918.792 222.593ZM932.813 228.333H929.448L929.469 225.521H932.813C933.507 225.521 934.094 225.354 934.573 225.021C935.059 224.687 935.427 224.191 935.677 223.531C935.934 222.864 936.063 222.045 936.063 221.073V220.416C936.063 219.687 935.99 219.048 935.844 218.5C935.705 217.944 935.497 217.482 935.219 217.114C934.941 216.739 934.594 216.458 934.177 216.271C933.767 216.083 933.295 215.989 932.76 215.989H929.385V213.166H932.76C933.788 213.166 934.729 213.343 935.583 213.698C936.444 214.045 937.188 214.545 937.813 215.198C938.444 215.843 938.931 216.611 939.271 217.5C939.618 218.382 939.792 219.361 939.792 220.437V221.073C939.792 222.142 939.618 223.121 939.271 224.01C938.931 224.899 938.448 225.666 937.823 226.312C937.198 226.958 936.458 227.458 935.604 227.812C934.757 228.159 933.826 228.333 932.813 228.333ZM931.542 213.166V228.333H927.885V213.166H931.542ZM947.885 221.885H943.979L943.958 219.489H947.125C947.694 219.489 948.149 219.427 948.49 219.302C948.83 219.17 949.076 218.979 949.229 218.729C949.389 218.479 949.469 218.166 949.469 217.791C949.469 217.361 949.389 217.014 949.229 216.75C949.069 216.486 948.816 216.295 948.469 216.177C948.128 216.052 947.688 215.989 947.146 215.989H945.354V228.333H941.698V213.166H947.146C948.083 213.166 948.92 213.253 949.656 213.427C950.392 213.593 951.017 213.85 951.531 214.198C952.052 214.545 952.448 214.982 952.719 215.51C952.99 216.031 953.125 216.646 953.125 217.354C953.125 217.972 952.993 218.552 952.729 219.093C952.465 219.635 952.024 220.076 951.406 220.416C950.795 220.75 949.958 220.923 948.896 220.937L947.885 221.885ZM947.74 228.333H943.094L944.344 225.521H947.74C948.24 225.521 948.639 225.444 948.938 225.291C949.243 225.132 949.462 224.923 949.594 224.666C949.733 224.402 949.802 224.111 949.802 223.791C949.802 223.402 949.736 223.066 949.604 222.781C949.479 222.496 949.278 222.277 949 222.125C948.722 221.965 948.351 221.885 947.885 221.885H944.813L944.833 219.489H948.51L949.365 220.448C950.378 220.406 951.181 220.548 951.771 220.875C952.368 221.201 952.795 221.632 953.052 222.166C953.309 222.701 953.438 223.26 953.438 223.843C953.438 224.836 953.222 225.666 952.792 226.333C952.368 227 951.733 227.5 950.885 227.833C950.038 228.166 948.99 228.333 947.74 228.333Z" fill="white"/>
</svg>
