<svg width="1363" height="301" viewBox="0 0 1363 301" fill="none" xmlns="http://www.w3.org/2000/svg">
<rect width="1363" height="301" rx="15" fill="#E5E5E5"/>
<path d="M0 15C0 6.71573 6.71573 0 15 0H37V301H15C6.71573 301 0 294.284 0 286V15Z" fill="#CBAC08"/>
<path d="M126.966 123.106V139.166C126.303 139.9 125.283 140.688 123.904 141.529C122.544 142.353 120.825 143.06 118.748 143.651C116.671 144.242 114.227 144.537 111.417 144.537C108.82 144.537 106.466 144.125 104.354 143.302C102.241 142.46 100.424 141.234 98.9019 139.623C97.3979 137.993 96.2342 136.006 95.4106 133.661C94.605 131.297 94.2021 128.594 94.2021 125.55V123.375C94.2021 120.331 94.6139 117.628 95.4375 115.265C96.2611 112.901 97.4159 110.914 98.9019 109.303C100.406 107.674 102.169 106.438 104.192 105.597C106.233 104.755 108.471 104.334 110.906 104.334C114.505 104.334 117.432 104.907 119.688 106.053C121.944 107.181 123.654 108.748 124.817 110.753C125.981 112.74 126.688 115.041 126.939 117.655H117.889C117.71 116.366 117.369 115.274 116.868 114.378C116.385 113.465 115.687 112.776 114.773 112.311C113.86 111.827 112.679 111.585 111.229 111.585C110.101 111.585 109.071 111.827 108.14 112.311C107.227 112.794 106.448 113.528 105.804 114.513C105.159 115.479 104.658 116.697 104.3 118.165C103.96 119.633 103.79 121.352 103.79 123.321V125.55C103.79 127.502 103.951 129.212 104.273 130.68C104.613 132.148 105.114 133.374 105.777 134.359C106.457 135.326 107.317 136.06 108.355 136.561C109.411 137.044 110.656 137.286 112.088 137.286C113.09 137.286 113.95 137.206 114.666 137.044C115.382 136.865 115.973 136.651 116.438 136.4C116.922 136.131 117.289 135.881 117.54 135.648V129.579H110.987V123.106H126.966ZM148.074 130.733H138.353V123.456H148.074C149.399 123.456 150.473 123.232 151.297 122.784C152.12 122.337 152.72 121.719 153.096 120.931C153.49 120.125 153.687 119.221 153.687 118.219C153.687 117.145 153.49 116.151 153.096 115.238C152.72 114.325 152.12 113.591 151.297 113.036C150.473 112.463 149.399 112.176 148.074 112.176H141.897V144H132.471V104.898H148.074C151.207 104.898 153.902 105.471 156.158 106.617C158.431 107.763 160.177 109.339 161.395 111.344C162.612 113.331 163.221 115.605 163.221 118.165C163.221 120.689 162.612 122.892 161.395 124.771C160.177 126.651 158.431 128.119 156.158 129.176C153.902 130.214 151.207 130.733 148.074 130.733Z" fill="black"/>
<path d="M110.918 76.001V80H97.6738V76.001H110.918ZM99.3486 55.1172V80H94.2217V55.1172H99.3486ZM109.192 65.2515V69.1479H97.6738V65.2515H109.192ZM110.901 55.1172V59.1333H97.6738V55.1172H110.901ZM118.797 53.75V80H113.858V53.75H118.797ZM128.06 61.5088V80H123.121V61.5088H128.06ZM122.813 56.6895C122.813 55.9717 123.064 55.3792 123.565 54.9121C124.066 54.445 124.738 54.2114 125.582 54.2114C126.413 54.2114 127.08 54.445 127.581 54.9121C128.094 55.3792 128.35 55.9717 128.35 56.6895C128.35 57.4072 128.094 57.9997 127.581 58.4668C127.08 58.9339 126.413 59.1675 125.582 59.1675C124.738 59.1675 124.066 58.9339 123.565 58.4668C123.064 57.9997 122.813 57.4072 122.813 56.6895ZM140.638 80.3418C139.202 80.3418 137.915 80.1139 136.775 79.6582C135.636 79.1911 134.668 78.5474 133.87 77.7271C133.084 76.9067 132.48 75.9554 132.059 74.873C131.637 73.7793 131.426 72.6172 131.426 71.3867V70.7031C131.426 69.3018 131.626 68.02 132.024 66.8579C132.423 65.6958 132.993 64.6875 133.733 63.833C134.485 62.9785 135.397 62.3234 136.468 61.8677C137.539 61.4006 138.746 61.167 140.091 61.167C141.401 61.167 142.563 61.3835 143.577 61.8164C144.591 62.2493 145.44 62.8646 146.124 63.6621C146.819 64.4596 147.343 65.4167 147.696 66.5332C148.049 67.6383 148.226 68.8688 148.226 70.2246V72.2754H133.528V68.9941H143.389V68.6182C143.389 67.9346 143.264 67.325 143.013 66.7896C142.774 66.2427 142.409 65.8097 141.919 65.4907C141.43 65.1717 140.803 65.0122 140.04 65.0122C139.39 65.0122 138.832 65.1546 138.365 65.4395C137.898 65.7243 137.516 66.123 137.22 66.6357C136.935 67.1484 136.718 67.7523 136.57 68.4473C136.434 69.1309 136.365 69.8828 136.365 70.7031V71.3867C136.365 72.1273 136.468 72.8109 136.673 73.4375C136.889 74.0641 137.191 74.6053 137.579 75.061C137.977 75.5168 138.456 75.87 139.014 76.1206C139.584 76.3713 140.228 76.4966 140.945 76.4966C141.834 76.4966 142.66 76.3257 143.423 75.9839C144.198 75.6307 144.865 75.1009 145.423 74.3945L147.815 76.9922C147.428 77.5505 146.898 78.0859 146.226 78.5986C145.565 79.1113 144.768 79.5329 143.833 79.8633C142.899 80.1823 141.834 80.3418 140.638 80.3418ZM162.393 55.1172H166.734L173.125 73.3862L179.517 55.1172H183.858L174.869 80H171.382L162.393 55.1172ZM160.052 55.1172H164.375L165.162 72.9248V80H160.052V55.1172ZM181.875 55.1172H186.216V80H181.089V72.9248L181.875 55.1172ZM200.384 75.8301V67.5928C200.384 67.0003 200.287 66.4933 200.093 66.0718C199.9 65.6388 199.598 65.3027 199.188 65.0635C198.789 64.8242 198.27 64.7046 197.632 64.7046C197.085 64.7046 196.613 64.8014 196.214 64.9951C195.815 65.1774 195.507 65.4451 195.291 65.7983C195.075 66.1401 194.966 66.5446 194.966 67.0117H190.044C190.044 66.2256 190.227 65.4793 190.591 64.7729C190.956 64.0666 191.486 63.4456 192.181 62.9102C192.876 62.3633 193.702 61.936 194.659 61.6284C195.627 61.3208 196.709 61.167 197.906 61.167C199.341 61.167 200.617 61.4062 201.734 61.8848C202.85 62.3633 203.728 63.0811 204.366 64.0381C205.015 64.9951 205.34 66.1914 205.34 67.627V75.5396C205.34 76.5535 205.403 77.3853 205.528 78.0347C205.653 78.6727 205.835 79.231 206.075 79.7095V80H201.102C200.862 79.4987 200.68 78.8721 200.555 78.1201C200.441 77.3568 200.384 76.5934 200.384 75.8301ZM201.033 68.7378L201.067 71.5234H198.316C197.667 71.5234 197.103 71.5975 196.624 71.7456C196.146 71.8937 195.752 72.1045 195.445 72.3779C195.137 72.64 194.909 72.9476 194.761 73.3008C194.625 73.654 194.556 74.0413 194.556 74.4629C194.556 74.8844 194.653 75.2661 194.847 75.6079C195.04 75.9383 195.319 76.2004 195.684 76.394C196.049 76.5763 196.476 76.6675 196.966 76.6675C197.706 76.6675 198.35 76.5194 198.897 76.2231C199.444 75.9269 199.865 75.5623 200.162 75.1294C200.469 74.6965 200.629 74.2863 200.64 73.8989L201.939 75.9839C201.757 76.451 201.506 76.9352 201.187 77.4365C200.879 77.9378 200.486 78.4106 200.008 78.855C199.529 79.2879 198.954 79.6468 198.282 79.9316C197.61 80.2051 196.812 80.3418 195.889 80.3418C194.716 80.3418 193.65 80.1082 192.693 79.6411C191.748 79.1626 190.996 78.5075 190.438 77.6758C189.891 76.8327 189.617 75.8757 189.617 74.8047C189.617 73.8363 189.799 72.9761 190.164 72.2241C190.529 71.4722 191.064 70.8398 191.771 70.3271C192.488 69.8031 193.383 69.41 194.454 69.1479C195.525 68.8745 196.766 68.7378 198.179 68.7378H201.033ZM209.407 61.5088H214.346V81.1108C214.346 82.478 214.096 83.6344 213.594 84.5801C213.093 85.5257 212.369 86.2435 211.424 86.7334C210.478 87.2233 209.333 87.4683 207.989 87.4683C207.567 87.4683 207.157 87.4455 206.758 87.3999C206.348 87.3543 205.927 87.2803 205.494 87.1777L205.511 83.4009C205.784 83.4465 206.052 83.4806 206.314 83.5034C206.565 83.5376 206.821 83.5547 207.083 83.5547C207.596 83.5547 208.023 83.4692 208.365 83.2983C208.707 83.1274 208.963 82.8597 209.134 82.4951C209.316 82.1419 209.407 81.6805 209.407 81.1108V61.5088ZM209.014 56.6895C209.014 55.9717 209.265 55.3792 209.766 54.9121C210.279 54.445 210.951 54.2114 211.783 54.2114C212.626 54.2114 213.298 54.445 213.799 54.9121C214.301 55.3792 214.551 55.9717 214.551 56.6895C214.551 57.4072 214.301 57.9997 213.799 58.4668C213.298 58.9339 212.626 59.1675 211.783 59.1675C210.951 59.1675 210.279 58.9339 209.766 58.4668C209.265 57.9997 209.014 57.4072 209.014 56.6895ZM229.18 75.9668V53.75H234.136V80H229.676L229.18 75.9668ZM217.491 70.9766V70.6177C217.491 69.2049 217.65 67.9232 217.969 66.7725C218.288 65.6104 218.755 64.6134 219.371 63.7817C219.986 62.95 220.743 62.3063 221.644 61.8506C222.544 61.3949 223.569 61.167 224.72 61.167C225.802 61.167 226.748 61.3949 227.557 61.8506C228.377 62.3063 229.072 62.9557 229.642 63.7988C230.223 64.6305 230.69 65.616 231.043 66.7554C231.396 67.8833 231.653 69.1195 231.812 70.4639V71.25C231.653 72.5374 231.396 73.7337 231.043 74.8389C230.69 75.944 230.223 76.9124 229.642 77.7441C229.072 78.5645 228.377 79.2025 227.557 79.6582C226.736 80.1139 225.779 80.3418 224.686 80.3418C223.535 80.3418 222.509 80.1082 221.609 79.6411C220.721 79.174 219.969 78.5189 219.354 77.6758C218.75 76.8327 218.288 75.8415 217.969 74.7021C217.65 73.5628 217.491 72.321 217.491 70.9766ZM222.413 70.6177V70.9766C222.413 71.7399 222.47 72.452 222.583 73.1128C222.709 73.7736 222.908 74.3604 223.182 74.873C223.466 75.3743 223.831 75.7674 224.275 76.0522C224.731 76.3257 225.284 76.4624 225.933 76.4624C226.776 76.4624 227.471 76.2744 228.018 75.8984C228.565 75.5111 228.981 74.9813 229.266 74.3091C229.562 73.6369 229.733 72.8621 229.778 71.9849V69.7461C229.744 69.0283 229.642 68.3846 229.471 67.8149C229.311 67.2339 229.072 66.7383 228.753 66.3281C228.445 65.918 228.058 65.599 227.591 65.3711C227.135 65.1432 226.594 65.0293 225.967 65.0293C225.329 65.0293 224.782 65.1774 224.327 65.4736C223.871 65.7585 223.501 66.1515 223.216 66.6528C222.942 67.1541 222.737 67.7466 222.601 68.4302C222.475 69.1024 222.413 69.8315 222.413 70.6177ZM247.962 75.8301V67.5928C247.962 67.0003 247.865 66.4933 247.671 66.0718C247.478 65.6388 247.176 65.3027 246.766 65.0635C246.367 64.8242 245.848 64.7046 245.21 64.7046C244.664 64.7046 244.191 64.8014 243.792 64.9951C243.393 65.1774 243.086 65.4451 242.869 65.7983C242.653 66.1401 242.544 66.5446 242.544 67.0117H237.623C237.623 66.2256 237.805 65.4793 238.169 64.7729C238.534 64.0666 239.064 63.4456 239.759 62.9102C240.454 62.3633 241.28 61.936 242.237 61.6284C243.205 61.3208 244.288 61.167 245.484 61.167C246.919 61.167 248.195 61.4062 249.312 61.8848C250.429 62.3633 251.306 63.0811 251.944 64.0381C252.593 64.9951 252.918 66.1914 252.918 67.627V75.5396C252.918 76.5535 252.981 77.3853 253.106 78.0347C253.231 78.6727 253.414 79.231 253.653 79.7095V80H248.68C248.44 79.4987 248.258 78.8721 248.133 78.1201C248.019 77.3568 247.962 76.5934 247.962 75.8301ZM248.611 68.7378L248.646 71.5234H245.894C245.245 71.5234 244.681 71.5975 244.202 71.7456C243.724 71.8937 243.331 72.1045 243.023 72.3779C242.715 72.64 242.487 72.9476 242.339 73.3008C242.203 73.654 242.134 74.0413 242.134 74.4629C242.134 74.8844 242.231 75.2661 242.425 75.6079C242.618 75.9383 242.898 76.2004 243.262 76.394C243.627 76.5763 244.054 76.6675 244.544 76.6675C245.285 76.6675 245.928 76.5194 246.475 76.2231C247.022 75.9269 247.444 75.5623 247.74 75.1294C248.047 74.6965 248.207 74.2863 248.218 73.8989L249.517 75.9839C249.335 76.451 249.084 76.9352 248.765 77.4365C248.458 77.9378 248.064 78.4106 247.586 78.855C247.107 79.2879 246.532 79.6468 245.86 79.9316C245.188 80.2051 244.39 80.3418 243.467 80.3418C242.294 80.3418 241.229 80.1082 240.271 79.6411C239.326 79.1626 238.574 78.5075 238.016 77.6758C237.469 76.8327 237.195 75.8757 237.195 74.8047C237.195 73.8363 237.378 72.9761 237.742 72.2241C238.107 71.4722 238.642 70.8398 239.349 70.3271C240.066 69.8031 240.961 69.41 242.032 69.1479C243.103 68.8745 244.345 68.7378 245.757 68.7378H248.611ZM261.907 53.75V80H256.968V53.75H261.907ZM275.955 75.8301V67.5928C275.955 67.0003 275.858 66.4933 275.665 66.0718C275.471 65.6388 275.169 65.3027 274.759 65.0635C274.36 64.8242 273.842 64.7046 273.204 64.7046C272.657 64.7046 272.184 64.8014 271.785 64.9951C271.386 65.1774 271.079 65.4451 270.862 65.7983C270.646 66.1401 270.538 66.5446 270.538 67.0117H265.616C265.616 66.2256 265.798 65.4793 266.163 64.7729C266.527 64.0666 267.057 63.4456 267.752 62.9102C268.447 62.3633 269.273 61.936 270.23 61.6284C271.198 61.3208 272.281 61.167 273.477 61.167C274.913 61.167 276.189 61.4062 277.305 61.8848C278.422 62.3633 279.299 63.0811 279.937 64.0381C280.586 64.9951 280.911 66.1914 280.911 67.627V75.5396C280.911 76.5535 280.974 77.3853 281.099 78.0347C281.224 78.6727 281.407 79.231 281.646 79.7095V80H276.673C276.434 79.4987 276.251 78.8721 276.126 78.1201C276.012 77.3568 275.955 76.5934 275.955 75.8301ZM276.604 68.7378L276.639 71.5234H273.887C273.238 71.5234 272.674 71.5975 272.195 71.7456C271.717 71.8937 271.324 72.1045 271.016 72.3779C270.708 72.64 270.481 72.9476 270.333 73.3008C270.196 73.654 270.127 74.0413 270.127 74.4629C270.127 74.8844 270.224 75.2661 270.418 75.6079C270.612 75.9383 270.891 76.2004 271.255 76.394C271.62 76.5763 272.047 76.6675 272.537 76.6675C273.278 76.6675 273.921 76.5194 274.468 76.2231C275.015 75.9269 275.437 75.5623 275.733 75.1294C276.041 74.6965 276.2 74.2863 276.211 73.8989L277.51 75.9839C277.328 76.451 277.077 76.9352 276.758 77.4365C276.451 77.9378 276.058 78.4106 275.579 78.855C275.101 79.2879 274.525 79.6468 273.853 79.9316C273.181 80.2051 272.383 80.3418 271.46 80.3418C270.287 80.3418 269.222 80.1082 268.265 79.6411C267.319 79.1626 266.567 78.5075 266.009 77.6758C265.462 76.8327 265.188 75.8757 265.188 74.8047C265.188 73.8363 265.371 72.9761 265.735 72.2241C266.1 71.4722 266.635 70.8398 267.342 70.3271C268.06 69.8031 268.954 69.41 270.025 69.1479C271.096 68.8745 272.338 68.7378 273.75 68.7378H276.604ZM289.524 65.4565V80H284.603V61.5088H289.217L289.524 65.4565ZM288.807 70.105H287.474C287.474 68.7378 287.65 67.5073 288.003 66.4136C288.357 65.3084 288.852 64.3685 289.49 63.5938C290.128 62.8076 290.886 62.2095 291.763 61.7993C292.652 61.3778 293.643 61.167 294.737 61.167C295.603 61.167 296.395 61.2923 297.112 61.543C297.83 61.7936 298.445 62.1924 298.958 62.7393C299.482 63.2861 299.881 64.0096 300.154 64.9097C300.439 65.8097 300.582 66.9092 300.582 68.208V80H295.625V68.1909C295.625 67.3706 295.512 66.7326 295.284 66.2769C295.056 65.8211 294.72 65.5021 294.275 65.3198C293.842 65.1261 293.307 65.0293 292.669 65.0293C292.008 65.0293 291.433 65.1603 290.943 65.4224C290.464 65.6844 290.066 66.049 289.747 66.5161C289.439 66.9718 289.205 67.5073 289.046 68.1226C288.886 68.7378 288.807 69.3986 288.807 70.105ZM309.52 61.5088V80H304.581V61.5088H309.52ZM304.273 56.6895C304.273 55.9717 304.524 55.3792 305.025 54.9121C305.526 54.445 306.198 54.2114 307.042 54.2114C307.873 54.2114 308.54 54.445 309.041 54.9121C309.554 55.3792 309.81 55.9717 309.81 56.6895C309.81 57.4072 309.554 57.9997 309.041 58.4668C308.54 58.9339 307.873 59.1675 307.042 59.1675C306.198 59.1675 305.526 58.9339 305.025 58.4668C304.524 57.9997 304.273 57.4072 304.273 56.6895Z" fill="#0F0F0F"/>
<rect x="92" y="181" width="1179" height="80" rx="13.3333" fill="#CCCCCC"/>
<rect x="107" y="196.333" width="208" height="49.3333" rx="4.66667" fill="#0F0F0F" stroke="#888888" stroke-width="4"/>
<path d="M171.823 213.167H177.792C178.958 213.167 179.972 213.34 180.833 213.688C181.694 214.035 182.358 214.549 182.823 215.229C183.295 215.91 183.531 216.75 183.531 217.75C183.531 218.618 183.396 219.344 183.125 219.927C182.854 220.51 182.476 220.993 181.99 221.375C181.51 221.75 180.951 222.059 180.312 222.302L179.115 222.979H174.104L174.083 220.156H177.792C178.257 220.156 178.642 220.073 178.948 219.906C179.253 219.74 179.483 219.503 179.635 219.198C179.795 218.885 179.875 218.514 179.875 218.083C179.875 217.646 179.795 217.271 179.635 216.958C179.476 216.646 179.24 216.406 178.927 216.24C178.622 216.073 178.243 215.99 177.792 215.99H175.479V228.333H171.823V213.167ZM180.125 228.333L176.771 221.625L180.646 221.604L184.042 228.177V228.333H180.125ZM191.031 228.542C190.115 228.542 189.295 228.399 188.573 228.115C187.851 227.823 187.24 227.424 186.74 226.917C186.247 226.41 185.868 225.826 185.604 225.167C185.347 224.507 185.219 223.809 185.219 223.073V222.677C185.219 221.851 185.333 221.087 185.562 220.385C185.792 219.677 186.132 219.059 186.583 218.531C187.035 218.003 187.601 217.594 188.281 217.302C188.962 217.003 189.753 216.854 190.656 216.854C191.455 216.854 192.17 216.983 192.802 217.24C193.434 217.497 193.969 217.865 194.406 218.344C194.851 218.823 195.187 219.403 195.417 220.083C195.653 220.764 195.771 221.528 195.771 222.375V223.802H186.562V221.604H192.344V221.333C192.351 220.958 192.285 220.639 192.146 220.375C192.014 220.111 191.819 219.91 191.562 219.771C191.306 219.632 190.993 219.563 190.625 219.563C190.243 219.563 189.927 219.646 189.677 219.813C189.434 219.979 189.243 220.208 189.104 220.5C188.972 220.785 188.878 221.115 188.823 221.49C188.767 221.865 188.74 222.26 188.74 222.677V223.073C188.74 223.49 188.795 223.868 188.906 224.208C189.024 224.549 189.191 224.84 189.406 225.083C189.628 225.319 189.892 225.503 190.198 225.635C190.51 225.767 190.865 225.833 191.26 225.833C191.74 225.833 192.212 225.743 192.677 225.563C193.142 225.382 193.542 225.083 193.875 224.667L195.469 226.563C195.24 226.889 194.913 227.205 194.49 227.51C194.073 227.816 193.573 228.066 192.99 228.26C192.406 228.448 191.753 228.542 191.031 228.542ZM203.052 225.5V220.854C203.052 220.535 203.007 220.26 202.917 220.031C202.826 219.802 202.684 219.625 202.49 219.5C202.295 219.368 202.035 219.302 201.708 219.302C201.444 219.302 201.219 219.347 201.031 219.438C200.844 219.528 200.701 219.663 200.604 219.844C200.507 220.024 200.458 220.253 200.458 220.531H196.948C196.948 220.01 197.062 219.528 197.292 219.083C197.528 218.632 197.861 218.24 198.292 217.906C198.729 217.573 199.25 217.316 199.854 217.135C200.465 216.948 201.146 216.854 201.896 216.854C202.792 216.854 203.59 217.003 204.292 217.302C205 217.601 205.559 218.049 205.969 218.646C206.378 219.236 206.583 219.979 206.583 220.875V225.49C206.583 226.226 206.625 226.785 206.708 227.167C206.792 227.542 206.91 227.872 207.062 228.156V228.333H203.542C203.375 227.986 203.25 227.563 203.167 227.063C203.09 226.556 203.052 226.035 203.052 225.5ZM203.479 221.448L203.5 223.323H201.948C201.622 223.323 201.344 223.368 201.115 223.458C200.892 223.549 200.712 223.674 200.573 223.833C200.441 223.986 200.344 224.16 200.281 224.354C200.226 224.549 200.198 224.753 200.198 224.969C200.198 225.177 200.247 225.365 200.344 225.531C200.448 225.691 200.587 225.816 200.76 225.906C200.934 225.997 201.128 226.042 201.344 226.042C201.733 226.042 202.062 225.969 202.333 225.823C202.611 225.67 202.823 225.486 202.969 225.271C203.115 225.056 203.187 224.854 203.187 224.667L203.958 226.104C203.819 226.382 203.66 226.663 203.479 226.948C203.306 227.233 203.087 227.497 202.823 227.74C202.566 227.976 202.25 228.17 201.875 228.323C201.5 228.469 201.045 228.542 200.51 228.542C199.816 228.542 199.177 228.399 198.594 228.115C198.017 227.83 197.556 227.434 197.208 226.927C196.861 226.413 196.687 225.823 196.687 225.156C196.687 224.573 196.792 224.052 197 223.594C197.215 223.135 197.538 222.747 197.969 222.427C198.399 222.108 198.948 221.865 199.615 221.698C200.281 221.531 201.066 221.448 201.969 221.448H203.479ZM213.292 225.833C213.618 225.833 213.896 225.774 214.125 225.656C214.361 225.531 214.538 225.358 214.656 225.135C214.781 224.906 214.84 224.632 214.833 224.313H218.135C218.142 225.16 217.934 225.903 217.51 226.542C217.094 227.174 216.524 227.667 215.802 228.021C215.087 228.368 214.278 228.542 213.375 228.542C212.493 228.542 211.722 228.399 211.062 228.115C210.403 227.823 209.851 227.42 209.406 226.906C208.969 226.385 208.639 225.778 208.417 225.083C208.201 224.389 208.094 223.635 208.094 222.823V222.583C208.094 221.771 208.201 221.017 208.417 220.323C208.639 219.622 208.969 219.014 209.406 218.5C209.851 217.979 210.399 217.576 211.052 217.292C211.712 217 212.479 216.854 213.354 216.854C214.292 216.854 215.118 217.031 215.833 217.385C216.556 217.74 217.122 218.253 217.531 218.927C217.941 219.601 218.142 220.417 218.135 221.375H214.833C214.84 221.035 214.788 220.729 214.677 220.458C214.566 220.188 214.392 219.972 214.156 219.813C213.927 219.646 213.632 219.563 213.271 219.563C212.91 219.563 212.618 219.642 212.396 219.802C212.174 219.962 212.003 220.184 211.885 220.469C211.774 220.747 211.698 221.066 211.656 221.427C211.622 221.788 211.604 222.174 211.604 222.583V222.823C211.604 223.24 211.622 223.632 211.656 224C211.698 224.361 211.778 224.681 211.896 224.958C212.014 225.229 212.184 225.444 212.406 225.604C212.628 225.757 212.924 225.833 213.292 225.833ZM225.573 217.063V219.5H218.781V217.063H225.573ZM220.208 214.26H223.719V224.656C223.719 224.955 223.753 225.188 223.823 225.354C223.892 225.514 224.01 225.628 224.177 225.698C224.351 225.76 224.58 225.792 224.865 225.792C225.066 225.792 225.233 225.788 225.365 225.781C225.497 225.767 225.622 225.75 225.74 225.729V228.24C225.441 228.337 225.128 228.41 224.802 228.458C224.476 228.514 224.128 228.542 223.76 228.542C223.01 228.542 222.368 228.424 221.833 228.188C221.306 227.951 220.903 227.58 220.625 227.073C220.347 226.566 220.208 225.906 220.208 225.094V214.26ZM233.167 223.573V213.167H236.812V223.573C236.812 224.587 236.58 225.465 236.115 226.208C235.656 226.951 235.031 227.528 234.24 227.938C233.455 228.34 232.573 228.542 231.594 228.542C230.58 228.542 229.677 228.372 228.885 228.031C228.101 227.691 227.483 227.167 227.031 226.458C226.587 225.75 226.365 224.847 226.365 223.75H230.031C230.031 224.264 230.09 224.667 230.208 224.958C230.326 225.243 230.5 225.444 230.729 225.563C230.965 225.674 231.253 225.729 231.594 225.729C231.927 225.729 232.208 225.646 232.437 225.479C232.674 225.306 232.854 225.059 232.979 224.74C233.104 224.413 233.167 224.024 233.167 223.573ZM246.948 224.302C246.948 224.066 246.913 223.854 246.844 223.667C246.774 223.472 246.646 223.292 246.458 223.125C246.271 222.958 246 222.792 245.646 222.625C245.299 222.451 244.84 222.271 244.271 222.083C243.604 221.861 242.962 221.611 242.344 221.333C241.726 221.049 241.174 220.719 240.687 220.344C240.201 219.962 239.816 219.517 239.531 219.01C239.247 218.497 239.104 217.899 239.104 217.219C239.104 216.566 239.25 215.979 239.542 215.458C239.833 214.931 240.24 214.483 240.76 214.115C241.288 213.74 241.906 213.455 242.615 213.26C243.323 213.059 244.097 212.958 244.937 212.958C246.049 212.958 247.028 213.153 247.875 213.542C248.729 213.924 249.396 214.469 249.875 215.177C250.361 215.878 250.604 216.708 250.604 217.667H246.969C246.969 217.285 246.889 216.948 246.729 216.656C246.576 216.365 246.344 216.135 246.031 215.969C245.719 215.802 245.326 215.719 244.854 215.719C244.396 215.719 244.01 215.788 243.698 215.927C243.385 216.066 243.149 216.253 242.99 216.49C242.83 216.719 242.75 216.972 242.75 217.25C242.75 217.479 242.812 217.688 242.937 217.875C243.069 218.056 243.253 218.226 243.49 218.385C243.733 218.545 244.024 218.698 244.365 218.844C244.712 218.99 245.101 219.132 245.531 219.271C246.337 219.528 247.052 219.816 247.677 220.135C248.309 220.448 248.84 220.806 249.271 221.208C249.708 221.604 250.038 222.056 250.26 222.563C250.49 223.069 250.604 223.642 250.604 224.281C250.604 224.962 250.472 225.566 250.208 226.094C249.944 226.622 249.566 227.069 249.073 227.438C248.58 227.799 247.99 228.073 247.302 228.26C246.615 228.448 245.847 228.542 245 228.542C244.222 228.542 243.455 228.444 242.698 228.25C241.948 228.049 241.267 227.743 240.656 227.333C240.045 226.917 239.556 226.385 239.187 225.74C238.826 225.087 238.646 224.313 238.646 223.417H242.312C242.312 223.861 242.372 224.236 242.49 224.542C242.608 224.847 242.781 225.094 243.01 225.281C243.24 225.462 243.521 225.594 243.854 225.677C244.187 225.753 244.569 225.792 245 225.792C245.465 225.792 245.84 225.726 246.125 225.594C246.41 225.455 246.618 225.274 246.75 225.052C246.882 224.823 246.948 224.573 246.948 224.302Z" fill="white"/>
<rect x="339" y="196.333" width="208" height="49.3333" rx="4.66667" fill="#0F0F0F" stroke="#888888" stroke-width="4"/>
<path d="M418.844 213.167V228.333H415.198L409.833 218.896V228.333H406.177V213.167H409.833L415.198 222.604V213.167H418.844ZM420.552 222.813V222.594C420.552 221.767 420.67 221.007 420.906 220.313C421.142 219.611 421.49 219.003 421.948 218.49C422.406 217.976 422.972 217.576 423.646 217.292C424.319 217 425.097 216.854 425.979 216.854C426.868 216.854 427.649 217 428.323 217.292C429.003 217.576 429.573 217.976 430.031 218.49C430.49 219.003 430.837 219.611 431.073 220.313C431.309 221.007 431.427 221.767 431.427 222.594V222.813C431.427 223.632 431.309 224.392 431.073 225.094C430.837 225.788 430.49 226.396 430.031 226.917C429.573 227.431 429.007 227.83 428.333 228.115C427.66 228.399 426.882 228.542 426 228.542C425.118 228.542 424.337 228.399 423.656 228.115C422.976 227.83 422.406 227.431 421.948 226.917C421.49 226.396 421.142 225.788 420.906 225.094C420.67 224.392 420.552 223.632 420.552 222.813ZM424.062 222.594V222.813C424.062 223.236 424.094 223.632 424.156 224C424.219 224.368 424.323 224.691 424.469 224.969C424.615 225.24 424.812 225.451 425.062 225.604C425.312 225.757 425.625 225.833 426 225.833C426.368 225.833 426.674 225.757 426.917 225.604C427.167 225.451 427.365 225.24 427.51 224.969C427.656 224.691 427.76 224.368 427.823 224C427.885 223.632 427.917 223.236 427.917 222.813V222.594C427.917 222.184 427.885 221.799 427.823 221.438C427.76 221.069 427.656 220.747 427.51 220.469C427.365 220.184 427.167 219.962 426.917 219.802C426.667 219.642 426.354 219.563 425.979 219.563C425.611 219.563 425.302 219.642 425.052 219.802C424.809 219.962 424.615 220.184 424.469 220.469C424.323 220.747 424.219 221.069 424.156 221.438C424.094 221.799 424.062 222.184 424.062 222.594ZM439.469 225.75V212.333H443V228.333H439.833L439.469 225.75ZM432.552 222.833V222.615C432.552 221.76 432.646 220.983 432.833 220.281C433.021 219.573 433.299 218.965 433.667 218.458C434.035 217.944 434.493 217.549 435.042 217.271C435.59 216.993 436.222 216.854 436.938 216.854C437.576 216.854 438.135 217.003 438.615 217.302C439.094 217.594 439.503 218.003 439.844 218.531C440.184 219.059 440.462 219.677 440.677 220.385C440.892 221.087 441.056 221.844 441.167 222.656V222.917C441.056 223.681 440.892 224.403 440.677 225.083C440.462 225.757 440.184 226.354 439.844 226.875C439.503 227.396 439.09 227.806 438.604 228.104C438.125 228.396 437.563 228.542 436.917 228.542C436.201 228.542 435.569 228.399 435.021 228.115C434.479 227.83 434.024 227.431 433.656 226.917C433.295 226.403 433.021 225.799 432.833 225.104C432.646 224.41 432.552 223.653 432.552 222.833ZM436.063 222.615V222.833C436.063 223.257 436.09 223.649 436.146 224.01C436.201 224.372 436.295 224.691 436.427 224.969C436.566 225.24 436.747 225.451 436.969 225.604C437.198 225.757 437.479 225.833 437.813 225.833C438.264 225.833 438.635 225.726 438.927 225.51C439.226 225.295 439.444 224.99 439.583 224.594C439.729 224.198 439.792 223.733 439.771 223.198V222.375C439.785 221.917 439.753 221.514 439.677 221.167C439.601 220.813 439.479 220.517 439.313 220.281C439.153 220.045 438.948 219.868 438.698 219.75C438.455 219.625 438.167 219.563 437.833 219.563C437.507 219.563 437.229 219.639 437 219.792C436.778 219.944 436.597 220.16 436.458 220.438C436.319 220.708 436.219 221.031 436.156 221.406C436.094 221.774 436.063 222.177 436.063 222.615ZM450.448 228.542C449.531 228.542 448.712 228.399 447.99 228.115C447.267 227.823 446.656 227.424 446.156 226.917C445.663 226.41 445.285 225.826 445.021 225.167C444.764 224.507 444.635 223.809 444.635 223.073V222.677C444.635 221.851 444.75 221.087 444.979 220.385C445.208 219.677 445.549 219.059 446 218.531C446.451 218.003 447.017 217.594 447.698 217.302C448.378 217.003 449.17 216.854 450.073 216.854C450.872 216.854 451.587 216.983 452.219 217.24C452.851 217.497 453.385 217.865 453.823 218.344C454.267 218.823 454.604 219.403 454.833 220.083C455.069 220.764 455.188 221.528 455.188 222.375V223.802H445.979V221.604H451.76V221.333C451.767 220.958 451.701 220.639 451.563 220.375C451.431 220.111 451.236 219.91 450.979 219.771C450.722 219.632 450.41 219.563 450.042 219.563C449.66 219.563 449.344 219.646 449.094 219.813C448.851 219.979 448.66 220.208 448.521 220.5C448.389 220.785 448.295 221.115 448.24 221.49C448.184 221.865 448.156 222.26 448.156 222.677V223.073C448.156 223.49 448.212 223.868 448.323 224.208C448.441 224.549 448.608 224.84 448.823 225.083C449.045 225.319 449.309 225.503 449.615 225.635C449.927 225.767 450.281 225.833 450.677 225.833C451.156 225.833 451.628 225.743 452.094 225.563C452.559 225.382 452.958 225.083 453.292 224.667L454.885 226.563C454.656 226.889 454.33 227.205 453.906 227.51C453.49 227.816 452.99 228.066 452.406 228.26C451.823 228.448 451.17 228.542 450.448 228.542ZM462.813 223.573V213.167H466.458V223.573C466.458 224.587 466.226 225.465 465.76 226.208C465.302 226.951 464.677 227.528 463.885 227.938C463.101 228.34 462.219 228.542 461.24 228.542C460.226 228.542 459.323 228.372 458.531 228.031C457.747 227.691 457.128 227.167 456.677 226.458C456.233 225.75 456.01 224.847 456.01 223.75H459.677C459.677 224.264 459.736 224.667 459.854 224.958C459.972 225.243 460.146 225.444 460.375 225.563C460.611 225.674 460.899 225.729 461.24 225.729C461.573 225.729 461.854 225.646 462.083 225.479C462.319 225.306 462.5 225.059 462.625 224.74C462.75 224.413 462.813 224.024 462.813 223.573ZM476.594 224.302C476.594 224.066 476.559 223.854 476.49 223.667C476.42 223.472 476.292 223.292 476.104 223.125C475.917 222.958 475.646 222.792 475.292 222.625C474.944 222.451 474.486 222.271 473.917 222.083C473.25 221.861 472.608 221.611 471.99 221.333C471.372 221.049 470.819 220.719 470.333 220.344C469.847 219.962 469.462 219.517 469.177 219.01C468.892 218.497 468.75 217.899 468.75 217.219C468.75 216.566 468.896 215.979 469.188 215.458C469.479 214.931 469.885 214.483 470.406 214.115C470.934 213.74 471.552 213.455 472.26 213.26C472.969 213.059 473.743 212.958 474.583 212.958C475.694 212.958 476.674 213.153 477.521 213.542C478.375 213.924 479.042 214.469 479.521 215.177C480.007 215.878 480.25 216.708 480.25 217.667H476.615C476.615 217.285 476.535 216.948 476.375 216.656C476.222 216.365 475.99 216.135 475.677 215.969C475.365 215.802 474.972 215.719 474.5 215.719C474.042 215.719 473.656 215.788 473.344 215.927C473.031 216.066 472.795 216.253 472.635 216.49C472.476 216.719 472.396 216.972 472.396 217.25C472.396 217.479 472.458 217.688 472.583 217.875C472.715 218.056 472.899 218.226 473.135 218.385C473.378 218.545 473.67 218.698 474.01 218.844C474.358 218.99 474.747 219.132 475.177 219.271C475.983 219.528 476.698 219.816 477.323 220.135C477.955 220.448 478.486 220.806 478.917 221.208C479.354 221.604 479.684 222.056 479.906 222.563C480.135 223.069 480.25 223.642 480.25 224.281C480.25 224.962 480.118 225.566 479.854 226.094C479.59 226.622 479.212 227.069 478.719 227.438C478.226 227.799 477.635 228.073 476.948 228.26C476.26 228.448 475.493 228.542 474.646 228.542C473.868 228.542 473.101 228.444 472.344 228.25C471.594 228.049 470.913 227.743 470.302 227.333C469.691 226.917 469.201 226.385 468.833 225.74C468.472 225.087 468.292 224.313 468.292 223.417H471.958C471.958 223.861 472.017 224.236 472.135 224.542C472.253 224.847 472.427 225.094 472.656 225.281C472.885 225.462 473.167 225.594 473.5 225.677C473.833 225.753 474.215 225.792 474.646 225.792C475.111 225.792 475.486 225.726 475.771 225.594C476.056 225.455 476.264 225.274 476.396 225.052C476.528 224.823 476.594 224.573 476.594 224.302Z" fill="white"/>
<rect x="571" y="196.333" width="208" height="49.3333" rx="4.66667" fill="#0F0F0F" stroke="#888888" stroke-width="4"/>
<path d="M648.458 225.521V228.333H640.375V225.521H648.458ZM641.677 213.167V228.333H638.021V213.167H641.677ZM647.417 219.188V221.906H640.375V219.188H647.417ZM648.49 213.167V215.99H640.375V213.167H648.49ZM655.698 225.167C655.698 224.972 655.632 224.806 655.5 224.667C655.375 224.521 655.153 224.389 654.833 224.271C654.514 224.146 654.066 224.021 653.49 223.896C652.941 223.778 652.424 223.622 651.937 223.427C651.458 223.233 651.038 222.997 650.677 222.719C650.316 222.441 650.031 222.111 649.823 221.729C649.622 221.347 649.521 220.91 649.521 220.417C649.521 219.938 649.622 219.486 649.823 219.063C650.031 218.632 650.333 218.253 650.729 217.927C651.132 217.594 651.622 217.333 652.198 217.146C652.774 216.951 653.431 216.854 654.167 216.854C655.181 216.854 656.056 217.01 656.792 217.323C657.528 217.628 658.094 218.059 658.49 218.615C658.892 219.163 659.094 219.799 659.094 220.521H655.583C655.583 220.236 655.535 219.993 655.437 219.792C655.347 219.59 655.198 219.438 654.99 219.333C654.781 219.222 654.503 219.167 654.156 219.167C653.913 219.167 653.691 219.212 653.49 219.302C653.295 219.392 653.139 219.517 653.021 219.677C652.903 219.837 652.844 220.024 652.844 220.24C652.844 220.392 652.878 220.531 652.948 220.656C653.024 220.774 653.139 220.885 653.292 220.99C653.444 221.087 653.639 221.177 653.875 221.26C654.111 221.337 654.396 221.406 654.729 221.469C655.486 221.608 656.194 221.806 656.854 222.063C657.514 222.319 658.049 222.684 658.458 223.156C658.875 223.628 659.083 224.264 659.083 225.063C659.083 225.563 658.969 226.024 658.74 226.448C658.51 226.865 658.181 227.233 657.75 227.552C657.319 227.865 656.802 228.108 656.198 228.281C655.594 228.455 654.913 228.542 654.156 228.542C653.08 228.542 652.17 228.351 651.427 227.969C650.684 227.58 650.122 227.094 649.74 226.51C649.365 225.92 649.177 225.323 649.177 224.719H652.448C652.462 225.066 652.545 225.351 652.698 225.573C652.858 225.795 653.069 225.958 653.333 226.063C653.597 226.167 653.903 226.219 654.25 226.219C654.569 226.219 654.833 226.174 655.042 226.083C655.257 225.993 655.42 225.872 655.531 225.719C655.642 225.559 655.698 225.375 655.698 225.167ZM664.271 219.229V232.667H660.76V217.063H664.031L664.271 219.229ZM671.187 222.563V222.781C671.187 223.601 671.094 224.361 670.906 225.063C670.719 225.764 670.441 226.375 670.073 226.896C669.705 227.417 669.247 227.823 668.698 228.115C668.156 228.399 667.528 228.542 666.812 228.542C666.139 228.542 665.559 228.392 665.073 228.094C664.587 227.795 664.181 227.382 663.854 226.854C663.528 226.326 663.264 225.722 663.062 225.042C662.861 224.361 662.701 223.642 662.583 222.885V222.604C662.701 221.792 662.861 221.038 663.062 220.344C663.264 219.642 663.528 219.031 663.854 218.51C664.181 217.99 664.583 217.583 665.062 217.292C665.549 217 666.128 216.854 666.802 216.854C667.517 216.854 668.146 216.99 668.687 217.26C669.236 217.531 669.694 217.92 670.062 218.427C670.437 218.927 670.719 219.528 670.906 220.229C671.094 220.931 671.187 221.708 671.187 222.563ZM667.677 222.781V222.563C667.677 222.125 667.646 221.726 667.583 221.365C667.521 220.997 667.42 220.677 667.281 220.406C667.149 220.135 666.972 219.927 666.75 219.781C666.528 219.635 666.253 219.563 665.927 219.563C665.552 219.563 665.236 219.622 664.979 219.74C664.729 219.851 664.528 220.024 664.375 220.26C664.229 220.49 664.125 220.778 664.062 221.125C664.007 221.465 663.983 221.865 663.99 222.323V223.177C663.976 223.705 664.028 224.17 664.146 224.573C664.264 224.969 664.469 225.278 664.76 225.5C665.052 225.722 665.448 225.833 665.948 225.833C666.281 225.833 666.559 225.757 666.781 225.604C667.003 225.444 667.181 225.226 667.312 224.948C667.444 224.663 667.538 224.337 667.594 223.969C667.649 223.601 667.677 223.205 667.677 222.781ZM676.292 219.854V228.333H672.781V217.063H676.062L676.292 219.854ZM679.625 216.979L679.562 220.24C679.424 220.226 679.236 220.208 679 220.188C678.764 220.167 678.566 220.156 678.406 220.156C677.997 220.156 677.642 220.205 677.344 220.302C677.052 220.392 676.809 220.531 676.615 220.719C676.427 220.899 676.288 221.128 676.198 221.406C676.115 221.684 676.076 222.007 676.083 222.375L675.448 221.958C675.448 221.201 675.521 220.514 675.667 219.896C675.819 219.271 676.035 218.733 676.312 218.281C676.59 217.823 676.927 217.472 677.323 217.229C677.719 216.979 678.163 216.854 678.656 216.854C678.83 216.854 679 216.865 679.167 216.885C679.34 216.906 679.493 216.938 679.625 216.979ZM686.083 228.542C685.167 228.542 684.347 228.399 683.625 228.115C682.903 227.823 682.292 227.424 681.792 226.917C681.299 226.41 680.92 225.826 680.656 225.167C680.399 224.507 680.271 223.809 680.271 223.073V222.677C680.271 221.851 680.385 221.087 680.615 220.385C680.844 219.677 681.184 219.059 681.635 218.531C682.087 218.003 682.653 217.594 683.333 217.302C684.014 217.003 684.806 216.854 685.708 216.854C686.507 216.854 687.222 216.983 687.854 217.24C688.486 217.497 689.021 217.865 689.458 218.344C689.903 218.823 690.24 219.403 690.469 220.083C690.705 220.764 690.823 221.528 690.823 222.375V223.802H681.615V221.604H687.396V221.333C687.403 220.958 687.337 220.639 687.198 220.375C687.066 220.111 686.872 219.91 686.615 219.771C686.358 219.632 686.045 219.563 685.677 219.563C685.295 219.563 684.979 219.646 684.729 219.813C684.486 219.979 684.295 220.208 684.156 220.5C684.024 220.785 683.931 221.115 683.875 221.49C683.819 221.865 683.792 222.26 683.792 222.677V223.073C683.792 223.49 683.847 223.868 683.958 224.208C684.076 224.549 684.243 224.84 684.458 225.083C684.681 225.319 684.944 225.503 685.25 225.635C685.562 225.767 685.917 225.833 686.312 225.833C686.792 225.833 687.264 225.743 687.729 225.563C688.194 225.382 688.594 225.083 688.927 224.667L690.521 226.563C690.292 226.889 689.965 227.205 689.542 227.51C689.125 227.816 688.625 228.066 688.042 228.26C687.458 228.448 686.806 228.542 686.083 228.542ZM698.156 225.167C698.156 224.972 698.09 224.806 697.958 224.667C697.833 224.521 697.611 224.389 697.292 224.271C696.972 224.146 696.524 224.021 695.948 223.896C695.399 223.778 694.882 223.622 694.396 223.427C693.917 223.233 693.497 222.997 693.135 222.719C692.774 222.441 692.49 222.111 692.281 221.729C692.08 221.347 691.979 220.91 691.979 220.417C691.979 219.938 692.08 219.486 692.281 219.063C692.49 218.632 692.792 218.253 693.187 217.927C693.59 217.594 694.08 217.333 694.656 217.146C695.233 216.951 695.889 216.854 696.625 216.854C697.639 216.854 698.514 217.01 699.25 217.323C699.986 217.628 700.552 218.059 700.948 218.615C701.351 219.163 701.552 219.799 701.552 220.521H698.042C698.042 220.236 697.993 219.993 697.896 219.792C697.806 219.59 697.656 219.438 697.448 219.333C697.24 219.222 696.962 219.167 696.615 219.167C696.372 219.167 696.149 219.212 695.948 219.302C695.753 219.392 695.597 219.517 695.479 219.677C695.361 219.837 695.302 220.024 695.302 220.24C695.302 220.392 695.337 220.531 695.406 220.656C695.483 220.774 695.597 220.885 695.75 220.99C695.903 221.087 696.097 221.177 696.333 221.26C696.569 221.337 696.854 221.406 697.187 221.469C697.944 221.608 698.653 221.806 699.312 222.063C699.972 222.319 700.507 222.684 700.917 223.156C701.333 223.628 701.542 224.264 701.542 225.063C701.542 225.563 701.427 226.024 701.198 226.448C700.969 226.865 700.639 227.233 700.208 227.552C699.778 227.865 699.26 228.108 698.656 228.281C698.052 228.455 697.372 228.542 696.615 228.542C695.538 228.542 694.628 228.351 693.885 227.969C693.142 227.58 692.58 227.094 692.198 226.51C691.823 225.92 691.635 225.323 691.635 224.719H694.906C694.92 225.066 695.003 225.351 695.156 225.573C695.316 225.795 695.528 225.958 695.792 226.063C696.056 226.167 696.361 226.219 696.708 226.219C697.028 226.219 697.292 226.174 697.5 226.083C697.715 225.993 697.878 225.872 697.99 225.719C698.101 225.559 698.156 225.375 698.156 225.167ZM709.094 225.167C709.094 224.972 709.028 224.806 708.896 224.667C708.771 224.521 708.549 224.389 708.229 224.271C707.91 224.146 707.462 224.021 706.885 223.896C706.337 223.778 705.819 223.622 705.333 223.427C704.854 223.233 704.434 222.997 704.073 222.719C703.712 222.441 703.427 222.111 703.219 221.729C703.017 221.347 702.917 220.91 702.917 220.417C702.917 219.938 703.017 219.486 703.219 219.063C703.427 218.632 703.729 218.253 704.125 217.927C704.528 217.594 705.017 217.333 705.594 217.146C706.17 216.951 706.826 216.854 707.562 216.854C708.576 216.854 709.451 217.01 710.187 217.323C710.924 217.628 711.49 218.059 711.885 218.615C712.288 219.163 712.49 219.799 712.49 220.521H708.979C708.979 220.236 708.931 219.993 708.833 219.792C708.743 219.59 708.594 219.438 708.385 219.333C708.177 219.222 707.899 219.167 707.552 219.167C707.309 219.167 707.087 219.212 706.885 219.302C706.691 219.392 706.535 219.517 706.417 219.677C706.299 219.837 706.24 220.024 706.24 220.24C706.24 220.392 706.274 220.531 706.344 220.656C706.42 220.774 706.535 220.885 706.687 220.99C706.84 221.087 707.035 221.177 707.271 221.26C707.507 221.337 707.792 221.406 708.125 221.469C708.882 221.608 709.59 221.806 710.25 222.063C710.91 222.319 711.444 222.684 711.854 223.156C712.271 223.628 712.479 224.264 712.479 225.063C712.479 225.563 712.365 226.024 712.135 226.448C711.906 226.865 711.576 227.233 711.146 227.552C710.715 227.865 710.198 228.108 709.594 228.281C708.99 228.455 708.309 228.542 707.552 228.542C706.476 228.542 705.566 228.351 704.823 227.969C704.08 227.58 703.517 227.094 703.135 226.51C702.76 225.92 702.573 225.323 702.573 224.719H705.844C705.858 225.066 705.941 225.351 706.094 225.573C706.253 225.795 706.465 225.958 706.729 226.063C706.993 226.167 707.299 226.219 707.646 226.219C707.965 226.219 708.229 226.174 708.437 226.083C708.653 225.993 708.816 225.872 708.927 225.719C709.038 225.559 709.094 225.375 709.094 225.167Z" fill="white"/>
<rect x="803" y="196.333" width="208" height="49.3333" rx="4.66667" fill="#0F0F0F" stroke="#888888" stroke-width="4"/>
<path d="M862.656 213.167H865.635L869.021 223.719L872.406 213.167H875.385L870.229 228.333H867.813L862.656 213.167ZM860.844 213.167H863.927L864.5 224.792V228.333H860.844V213.167ZM874.115 213.167H877.208V228.333H873.542V224.792L874.115 213.167ZM878.948 222.813V222.594C878.948 221.767 879.066 221.007 879.302 220.313C879.538 219.611 879.885 219.003 880.344 218.49C880.802 217.976 881.368 217.576 882.042 217.292C882.715 217 883.493 216.854 884.375 216.854C885.264 216.854 886.045 217 886.719 217.292C887.399 217.576 887.969 217.976 888.427 218.49C888.885 219.003 889.233 219.611 889.469 220.313C889.705 221.007 889.823 221.767 889.823 222.594V222.813C889.823 223.632 889.705 224.392 889.469 225.094C889.233 225.788 888.885 226.396 888.427 226.917C887.969 227.431 887.403 227.83 886.729 228.115C886.056 228.399 885.278 228.542 884.396 228.542C883.514 228.542 882.733 228.399 882.052 228.115C881.372 227.83 880.802 227.431 880.344 226.917C879.885 226.396 879.538 225.788 879.302 225.094C879.066 224.392 878.948 223.632 878.948 222.813ZM882.458 222.594V222.813C882.458 223.236 882.49 223.632 882.552 224C882.615 224.368 882.719 224.691 882.865 224.969C883.01 225.24 883.208 225.451 883.458 225.604C883.708 225.757 884.021 225.833 884.396 225.833C884.764 225.833 885.069 225.757 885.313 225.604C885.563 225.451 885.76 225.24 885.906 224.969C886.052 224.691 886.156 224.368 886.219 224C886.281 223.632 886.313 223.236 886.313 222.813V222.594C886.313 222.184 886.281 221.799 886.219 221.438C886.156 221.069 886.052 220.747 885.906 220.469C885.76 220.184 885.563 219.962 885.313 219.802C885.063 219.642 884.75 219.563 884.375 219.563C884.007 219.563 883.698 219.642 883.448 219.802C883.205 219.962 883.01 220.184 882.865 220.469C882.719 220.747 882.615 221.069 882.552 221.438C882.49 221.799 882.458 222.184 882.458 222.594ZM894.833 219.469V228.333H891.323V217.063H894.615L894.833 219.469ZM894.417 222.313L893.594 222.333C893.594 221.472 893.698 220.705 893.906 220.031C894.115 219.351 894.41 218.774 894.792 218.302C895.174 217.83 895.628 217.472 896.156 217.229C896.691 216.979 897.285 216.854 897.938 216.854C898.458 216.854 898.934 216.931 899.365 217.083C899.802 217.236 900.177 217.483 900.49 217.823C900.809 218.163 901.052 218.615 901.219 219.177C901.392 219.733 901.479 220.42 901.479 221.24V228.333H897.948V221.229C897.948 220.778 897.885 220.434 897.76 220.198C897.635 219.955 897.455 219.788 897.219 219.698C896.983 219.608 896.694 219.563 896.354 219.563C895.993 219.563 895.688 219.632 895.438 219.771C895.188 219.91 894.986 220.104 894.833 220.354C894.688 220.597 894.58 220.885 894.51 221.219C894.448 221.552 894.417 221.917 894.417 222.313ZM910.51 217.063H913.698V227.896C913.698 228.938 913.458 229.819 912.979 230.542C912.5 231.271 911.83 231.823 910.969 232.198C910.115 232.58 909.115 232.771 907.969 232.771C907.462 232.771 906.944 232.705 906.417 232.573C905.889 232.448 905.396 232.26 904.938 232.01C904.479 231.76 904.094 231.451 903.781 231.083L905.25 229.021C905.535 229.34 905.892 229.611 906.323 229.833C906.753 230.063 907.26 230.177 907.844 230.177C908.351 230.177 908.774 230.087 909.115 229.906C909.462 229.726 909.726 229.462 909.906 229.115C910.087 228.774 910.177 228.361 910.177 227.875V219.729L910.51 217.063ZM903.021 222.833V222.615C903.021 221.76 903.125 220.983 903.333 220.281C903.549 219.573 903.854 218.965 904.25 218.458C904.653 217.944 905.139 217.549 905.708 217.271C906.278 216.993 906.92 216.854 907.635 216.854C908.406 216.854 909.038 217.003 909.531 217.302C910.031 217.594 910.431 218.003 910.729 218.531C911.035 219.059 911.271 219.677 911.438 220.385C911.611 221.087 911.757 221.844 911.875 222.656V222.917C911.757 223.681 911.594 224.403 911.385 225.083C911.184 225.757 910.92 226.354 910.594 226.875C910.267 227.396 909.858 227.806 909.365 228.104C908.878 228.396 908.295 228.542 907.615 228.542C906.906 228.542 906.267 228.399 905.698 228.115C905.135 227.83 904.653 227.431 904.25 226.917C903.854 226.403 903.549 225.799 903.333 225.104C903.125 224.41 903.021 223.653 903.021 222.833ZM906.531 222.615V222.833C906.531 223.257 906.569 223.649 906.646 224.01C906.729 224.372 906.854 224.691 907.021 224.969C907.188 225.24 907.392 225.451 907.635 225.604C907.885 225.757 908.177 225.833 908.51 225.833C909.017 225.833 909.427 225.726 909.74 225.51C910.052 225.295 910.278 224.99 910.417 224.594C910.556 224.198 910.615 223.733 910.594 223.198V222.375C910.608 221.917 910.576 221.514 910.5 221.167C910.424 220.813 910.302 220.517 910.135 220.281C909.976 220.045 909.76 219.868 909.49 219.75C909.226 219.625 908.906 219.563 908.531 219.563C908.205 219.563 907.917 219.639 907.667 219.792C907.417 219.944 907.208 220.16 907.042 220.438C906.875 220.708 906.747 221.031 906.656 221.406C906.573 221.774 906.531 222.177 906.531 222.615ZM915.281 222.813V222.594C915.281 221.767 915.399 221.007 915.635 220.313C915.872 219.611 916.219 219.003 916.677 218.49C917.135 217.976 917.701 217.576 918.375 217.292C919.049 217 919.826 216.854 920.708 216.854C921.597 216.854 922.378 217 923.052 217.292C923.733 217.576 924.302 217.976 924.76 218.49C925.219 219.003 925.566 219.611 925.802 220.313C926.038 221.007 926.156 221.767 926.156 222.594V222.813C926.156 223.632 926.038 224.392 925.802 225.094C925.566 225.788 925.219 226.396 924.76 226.917C924.302 227.431 923.736 227.83 923.063 228.115C922.389 228.399 921.611 228.542 920.729 228.542C919.847 228.542 919.066 228.399 918.385 228.115C917.705 227.83 917.135 227.431 916.677 226.917C916.219 226.396 915.872 225.788 915.635 225.094C915.399 224.392 915.281 223.632 915.281 222.813ZM918.792 222.594V222.813C918.792 223.236 918.823 223.632 918.885 224C918.948 224.368 919.052 224.691 919.198 224.969C919.344 225.24 919.542 225.451 919.792 225.604C920.042 225.757 920.354 225.833 920.729 225.833C921.097 225.833 921.403 225.757 921.646 225.604C921.896 225.451 922.094 225.24 922.24 224.969C922.385 224.691 922.49 224.368 922.552 224C922.615 223.632 922.646 223.236 922.646 222.813V222.594C922.646 222.184 922.615 221.799 922.552 221.438C922.49 221.069 922.385 220.747 922.24 220.469C922.094 220.184 921.896 219.962 921.646 219.802C921.396 219.642 921.083 219.563 920.708 219.563C920.34 219.563 920.031 219.642 919.781 219.802C919.538 219.962 919.344 220.184 919.198 220.469C919.052 220.747 918.948 221.069 918.885 221.438C918.823 221.799 918.792 222.184 918.792 222.594ZM932.813 228.333H929.448L929.469 225.521H932.813C933.507 225.521 934.094 225.354 934.573 225.021C935.059 224.688 935.427 224.191 935.677 223.531C935.934 222.865 936.063 222.045 936.063 221.073V220.417C936.063 219.688 935.99 219.049 935.844 218.5C935.705 217.944 935.497 217.483 935.219 217.115C934.941 216.74 934.594 216.458 934.177 216.271C933.767 216.083 933.295 215.99 932.76 215.99H929.385V213.167H932.76C933.788 213.167 934.729 213.344 935.583 213.698C936.444 214.045 937.188 214.545 937.813 215.198C938.444 215.844 938.931 216.611 939.271 217.5C939.618 218.382 939.792 219.361 939.792 220.438V221.073C939.792 222.142 939.618 223.122 939.271 224.01C938.931 224.899 938.448 225.667 937.823 226.313C937.198 226.958 936.458 227.458 935.604 227.813C934.757 228.16 933.826 228.333 932.813 228.333ZM931.542 213.167V228.333H927.885V213.167H931.542ZM947.885 221.885H943.979L943.958 219.49H947.125C947.694 219.49 948.149 219.427 948.49 219.302C948.83 219.17 949.076 218.979 949.229 218.729C949.389 218.479 949.469 218.167 949.469 217.792C949.469 217.361 949.389 217.014 949.229 216.75C949.069 216.486 948.816 216.295 948.469 216.177C948.128 216.052 947.688 215.99 947.146 215.99H945.354V228.333H941.698V213.167H947.146C948.083 213.167 948.92 213.253 949.656 213.427C950.392 213.594 951.017 213.851 951.531 214.198C952.052 214.545 952.448 214.983 952.719 215.51C952.99 216.031 953.125 216.646 953.125 217.354C953.125 217.972 952.993 218.552 952.729 219.094C952.465 219.635 952.024 220.076 951.406 220.417C950.795 220.75 949.958 220.924 948.896 220.938L947.885 221.885ZM947.74 228.333H943.094L944.344 225.521H947.74C948.24 225.521 948.639 225.444 948.938 225.292C949.243 225.132 949.462 224.924 949.594 224.667C949.733 224.403 949.802 224.111 949.802 223.792C949.802 223.403 949.736 223.066 949.604 222.781C949.479 222.497 949.278 222.278 949 222.125C948.722 221.965 948.351 221.885 947.885 221.885H944.813L944.833 219.49H948.51L949.365 220.448C950.378 220.406 951.181 220.549 951.771 220.875C952.368 221.201 952.795 221.632 953.052 222.167C953.309 222.701 953.438 223.26 953.438 223.844C953.438 224.837 953.222 225.667 952.792 226.333C952.368 227 951.733 227.5 950.885 227.833C950.038 228.167 948.99 228.333 947.74 228.333Z" fill="white"/>
<rect x="1035" y="196.333" width="208" height="49.3333" rx="4.66667" fill="#0F0F0F" stroke="#888888" stroke-width="4"/>
<path d="M1114.04 213.167V228.333H1110.39V213.167H1114.04ZM1119.94 219.479V222.292H1113V219.479H1119.94ZM1120.53 213.167V215.99H1113V213.167H1120.53ZM1125.59 217.063V228.333H1122.07V217.063H1125.59ZM1121.86 214.156C1121.86 213.656 1122.05 213.247 1122.41 212.927C1122.77 212.608 1123.24 212.448 1123.81 212.448C1124.39 212.448 1124.86 212.608 1125.22 212.927C1125.58 213.247 1125.76 213.656 1125.76 214.156C1125.76 214.656 1125.58 215.066 1125.22 215.385C1124.86 215.705 1124.39 215.865 1123.81 215.865C1123.24 215.865 1122.77 215.705 1122.41 215.385C1122.05 215.066 1121.86 214.656 1121.86 214.156ZM1134.84 217.063H1138.03V227.896C1138.03 228.938 1137.79 229.819 1137.31 230.542C1136.83 231.271 1136.16 231.823 1135.3 232.198C1134.45 232.58 1133.45 232.771 1132.3 232.771C1131.8 232.771 1131.28 232.705 1130.75 232.573C1130.22 232.448 1129.73 232.26 1129.27 232.01C1128.81 231.76 1128.43 231.451 1128.11 231.083L1129.58 229.021C1129.87 229.34 1130.23 229.611 1130.66 229.833C1131.09 230.063 1131.59 230.177 1132.18 230.177C1132.68 230.177 1133.11 230.087 1133.45 229.906C1133.8 229.726 1134.06 229.462 1134.24 229.115C1134.42 228.774 1134.51 228.361 1134.51 227.875V219.729L1134.84 217.063ZM1127.35 222.833V222.615C1127.35 221.76 1127.46 220.983 1127.67 220.281C1127.88 219.573 1128.19 218.965 1128.58 218.458C1128.99 217.944 1129.47 217.549 1130.04 217.271C1130.61 216.993 1131.25 216.854 1131.97 216.854C1132.74 216.854 1133.37 217.003 1133.86 217.302C1134.36 217.594 1134.76 218.003 1135.06 218.531C1135.37 219.059 1135.6 219.677 1135.77 220.385C1135.94 221.087 1136.09 221.844 1136.21 222.656V222.917C1136.09 223.681 1135.93 224.403 1135.72 225.083C1135.52 225.757 1135.25 226.354 1134.93 226.875C1134.6 227.396 1134.19 227.806 1133.7 228.104C1133.21 228.396 1132.63 228.542 1131.95 228.542C1131.24 228.542 1130.6 228.399 1130.03 228.115C1129.47 227.83 1128.99 227.431 1128.58 226.917C1128.19 226.403 1127.88 225.799 1127.67 225.104C1127.46 224.41 1127.35 223.653 1127.35 222.833ZM1130.86 222.615V222.833C1130.86 223.257 1130.9 223.649 1130.98 224.01C1131.06 224.372 1131.19 224.691 1131.35 224.969C1131.52 225.24 1131.73 225.451 1131.97 225.604C1132.22 225.757 1132.51 225.833 1132.84 225.833C1133.35 225.833 1133.76 225.726 1134.07 225.51C1134.39 225.295 1134.61 224.99 1134.75 224.594C1134.89 224.198 1134.95 223.733 1134.93 223.198V222.375C1134.94 221.917 1134.91 221.514 1134.83 221.167C1134.76 220.813 1134.64 220.517 1134.47 220.281C1134.31 220.045 1134.09 219.868 1133.82 219.75C1133.56 219.625 1133.24 219.563 1132.86 219.563C1132.54 219.563 1132.25 219.639 1132 219.792C1131.75 219.944 1131.54 220.16 1131.37 220.438C1131.21 220.708 1131.08 221.031 1130.99 221.406C1130.91 221.774 1130.86 222.177 1130.86 222.615ZM1143.59 219.448V228.333H1140.08V217.063H1143.38L1143.59 219.448ZM1143.17 222.313L1142.36 222.333C1142.36 221.542 1142.46 220.813 1142.65 220.146C1142.83 219.479 1143.11 218.899 1143.48 218.406C1143.85 217.913 1144.3 217.531 1144.83 217.26C1145.38 216.99 1146 216.854 1146.71 216.854C1147.2 216.854 1147.65 216.931 1148.05 217.083C1148.45 217.229 1148.8 217.462 1149.09 217.781C1149.39 218.094 1149.61 218.503 1149.76 219.01C1149.92 219.51 1150 220.111 1150 220.813V228.333H1146.49V221.26C1146.49 220.781 1146.43 220.42 1146.32 220.177C1146.22 219.934 1146.07 219.771 1145.86 219.688C1145.66 219.604 1145.42 219.563 1145.13 219.563C1144.82 219.563 1144.55 219.632 1144.3 219.771C1144.06 219.91 1143.85 220.104 1143.68 220.354C1143.51 220.597 1143.38 220.885 1143.29 221.219C1143.21 221.552 1143.17 221.917 1143.17 222.313ZM1149.6 222.313L1148.63 222.333C1148.63 221.542 1148.71 220.813 1148.89 220.146C1149.07 219.479 1149.33 218.899 1149.69 218.406C1150.05 217.913 1150.5 217.531 1151.03 217.26C1151.57 216.99 1152.19 216.854 1152.9 216.854C1153.41 216.854 1153.88 216.931 1154.31 217.083C1154.74 217.236 1155.11 217.483 1155.43 217.823C1155.74 218.163 1155.98 218.615 1156.16 219.177C1156.33 219.733 1156.42 220.42 1156.42 221.24V228.333H1152.9V221.24C1152.9 220.774 1152.84 220.424 1152.73 220.188C1152.63 219.944 1152.47 219.781 1152.27 219.698C1152.07 219.608 1151.83 219.563 1151.55 219.563C1151.22 219.563 1150.93 219.632 1150.69 219.771C1150.44 219.91 1150.24 220.104 1150.07 220.354C1149.91 220.597 1149.8 220.885 1149.72 221.219C1149.64 221.552 1149.6 221.917 1149.6 222.313ZM1164.28 225.5V220.854C1164.28 220.535 1164.24 220.26 1164.15 220.031C1164.06 219.802 1163.91 219.625 1163.72 219.5C1163.52 219.368 1163.26 219.302 1162.94 219.302C1162.67 219.302 1162.45 219.347 1162.26 219.438C1162.07 219.528 1161.93 219.663 1161.83 219.844C1161.74 220.024 1161.69 220.253 1161.69 220.531H1158.18C1158.18 220.01 1158.29 219.528 1158.52 219.083C1158.76 218.632 1159.09 218.24 1159.52 217.906C1159.96 217.573 1160.48 217.316 1161.08 217.135C1161.69 216.948 1162.38 216.854 1163.13 216.854C1164.02 216.854 1164.82 217.003 1165.52 217.302C1166.23 217.601 1166.79 218.049 1167.2 218.646C1167.61 219.236 1167.81 219.979 1167.81 220.875V225.49C1167.81 226.226 1167.85 226.785 1167.94 227.167C1168.02 227.542 1168.14 227.872 1168.29 228.156V228.333H1164.77C1164.6 227.986 1164.48 227.563 1164.4 227.063C1164.32 226.556 1164.28 226.035 1164.28 225.5ZM1164.71 221.448L1164.73 223.323H1163.18C1162.85 223.323 1162.57 223.368 1162.34 223.458C1162.12 223.549 1161.94 223.674 1161.8 223.833C1161.67 223.986 1161.57 224.16 1161.51 224.354C1161.45 224.549 1161.43 224.753 1161.43 224.969C1161.43 225.177 1161.48 225.365 1161.57 225.531C1161.68 225.691 1161.82 225.816 1161.99 225.906C1162.16 225.997 1162.36 226.042 1162.57 226.042C1162.96 226.042 1163.29 225.969 1163.56 225.823C1163.84 225.67 1164.05 225.486 1164.2 225.271C1164.34 225.056 1164.42 224.854 1164.42 224.667L1165.19 226.104C1165.05 226.382 1164.89 226.663 1164.71 226.948C1164.53 227.233 1164.32 227.497 1164.05 227.74C1163.8 227.976 1163.48 228.17 1163.1 228.323C1162.73 228.469 1162.27 228.542 1161.74 228.542C1161.05 228.542 1160.41 228.399 1159.82 228.115C1159.25 227.83 1158.78 227.434 1158.44 226.927C1158.09 226.413 1157.92 225.823 1157.92 225.156C1157.92 224.573 1158.02 224.052 1158.23 223.594C1158.44 223.135 1158.77 222.747 1159.2 222.427C1159.63 222.108 1160.18 221.865 1160.84 221.698C1161.51 221.531 1162.3 221.448 1163.2 221.448H1164.71Z" fill="white"/>
</svg>
